<?xml version="1.0" encoding="utf-8"?>
<!-- Generator: Adobe Illustrator 27.5.0, SVG Export Plug-In . SVG Version: 6.00 Build 0)  -->
<svg version="1.1" id="Capa_2" xmlns="http://www.w3.org/2000/svg" xmlns:xlink="http://www.w3.org/1999/xlink" x="0px" y="0px"
	 viewBox="0 0 2372 1898" style="enable-background:new 0 0 2372 1898;" xml:space="preserve">
<path style="fill:#5CB8E9;" d="M2133.214,1204.7c-0.107-0.947-0.222-1.893-0.343-2.838c-0.364-2.813-0.795-5.621-1.29-8.42
	c-0.158-0.889-0.319-1.778-0.49-2.665c-1.263-6.584-2.885-13.118-4.823-19.577c-0.568-1.89-1.163-3.774-1.784-5.652
	c-0.583-1.761-1.19-3.515-1.819-5.264l-0.501-1.377c-0.464-1.262-0.937-2.521-1.424-3.775c-0.481-1.24-0.977-2.476-1.481-3.708
	c-0.765-1.869-1.554-3.728-2.369-5.578c-0.531-1.207-1.07-2.41-1.622-3.607c-4.886-10.609-10.564-20.855-16.857-30.592
	c-27.881-43.143-66.214-76.691-110.188-102.691c-1.599-0.945-3.206-1.881-4.819-2.806c-2.42-1.389-4.857-2.755-7.31-4.099
	c-1.634-0.896-3.276-1.783-4.924-2.66c-4.121-2.193-8.284-4.325-12.485-6.398c-0.841-0.414-1.681-0.827-2.525-1.237
	c-2.529-1.229-5.071-2.439-7.627-3.626c-0.851-0.397-1.705-0.79-2.559-1.182c-3.419-1.566-6.859-3.095-10.319-4.588
	c-1.73-0.747-3.465-1.485-5.205-2.214c-1.74-0.729-3.485-1.449-5.234-2.16c-0.875-0.355-1.75-0.709-2.628-1.061
	c-2.63-1.054-5.271-2.088-7.921-3.104c-0.884-0.339-1.768-0.675-2.653-1.009c-1.771-0.668-3.545-1.328-5.324-1.979
	c-1.778-0.652-3.56-1.295-5.346-1.93c-1.786-0.635-3.575-1.26-5.368-1.879c-11.651-4.018-23.442-7.688-35.308-11.039
	c-1.826-0.516-3.653-1.024-5.482-1.524c-0.915-0.25-1.829-0.499-2.745-0.746c-8.237-2.218-16.503-4.287-24.777-6.214
	c-0.919-0.215-1.839-0.427-2.758-0.638c-4.597-1.053-9.197-2.064-13.795-3.032c-0.919-0.193-1.838-0.385-2.757-0.576
	c-1.839-0.38-3.677-0.755-5.515-1.122c-0.919-0.184-1.837-0.366-2.755-0.546c-1.837-0.361-3.674-0.715-5.508-1.064
	c-3.971-0.753-7.981-1.506-12.018-2.268c-0.505-0.095-1.01-0.191-1.516-0.287c-1.516-0.286-3.036-0.575-4.558-0.865
	c-3.045-0.581-6.102-1.171-9.164-1.774c-1.532-0.301-3.064-0.606-4.597-0.915c-0.662-0.133-1.324-0.267-1.985-0.401h1.731
	c-54.516-11-110.087-26.931-137.585-73.244c-26.384-44.435-15.871-102.071,6.75-148.535c22.622-46.464,56.113-87.142,77.082-134.375
	c11.664-26.272,19.191-56.878,8.187-83.434c-12.303-29.696-45.965-46.667-78.107-46.419c-32.143,0.246-62.6,14.928-88.762,33.601
	c-1.393,0.995-2.778,2.001-4.157,3.018c-6.936,5.102-13.717,10.459-20.545,15.733c-1.345,1.039-2.691,2.075-4.042,3.105
	c-2.009,1.532-4.026,3.052-6.056,4.55c-10.132,7.46-20.585,14.369-31.996,19.656c-19.905,9.224-44.224,12.503-64.009,4.456
	c-4.656-1.894-9.058-4.414-13.095-7.632c-21.947-17.495-25.509-48.255-21.881-76.97l0.025,0.051
	c0.668-5.302,1.552-10.543,2.641-15.61c3.164-14.724,7.316-29.721,9.985-44.671c0.183-1.031,0.361-2.062,0.53-3.092
	c0.168-1.03,0.33-2.06,0.483-3.09c0.687-4.634,1.198-9.259,1.459-13.866c0.145-2.559,0.214-5.112,0.192-7.659
	c-0.008-1.018-0.031-2.035-0.069-3.051c-0.286-7.62-1.425-15.169-3.758-22.6c-2.432-7.741-6.117-14.859-10.782-21.275
	c-0.718-0.987-1.459-1.957-2.221-2.911c-3.642-4.552-7.792-8.715-12.335-12.463c-0.692-0.571-1.389-1.135-2.098-1.685l-1.477-1.125
	c-0.993-0.739-2.002-1.461-3.026-2.162c-0.713-0.489-1.435-0.965-2.162-1.436c-1.589-1.028-3.211-2.01-4.864-2.948
	c-2.48-1.408-5.025-2.717-7.628-3.917c-1.141-0.525-2.291-1.03-3.452-1.515c-1.373-0.573-2.76-1.114-4.158-1.63
	c-3.204-1.181-6.471-2.209-9.779-3.077l-0.842-0.217c-2.8-0.71-5.626-1.305-8.471-1.783l-0.614-0.101
	c-2.334-0.378-4.679-0.677-7.028-0.895c-0.722-0.066-1.445-0.127-2.167-0.177c-3.719-0.265-7.443-0.326-11.145-0.174
	c-11.032,0.455-21.818,2.464-32.259,5.718c-0.773,0.241-1.543,0.486-2.312,0.74c-1.175,0.389-2.344,0.793-3.51,1.213
	c-1.165,0.419-2.325,0.854-3.481,1.303c-0.578,0.225-1.155,0.453-1.73,0.685c-5.754,2.32-11.386,5.004-16.877,7.997
	c-0.549,0.299-1.097,0.602-1.643,0.907c-6.663,3.724-13.113,7.902-19.319,12.428c-1.157,0.842-2.307,1.696-3.448,2.562
	c-1.281,0.97-2.55,1.956-3.808,2.954c-0.646,0.513-1.289,1.029-1.929,1.55c-1.329,1.079-2.643,2.173-3.945,3.281
	c-1.104,0.939-2.197,1.888-3.281,2.847c-1.315,1.162-2.615,2.338-3.9,3.527l-0.211,0.195c-1.345,1.247-2.674,2.508-3.986,3.781
	c-2.667,2.588-5.292,5.238-7.893,7.926c-2.421,2.501-4.82,5.035-7.213,7.579l-1.066,1.136c-1.658,1.765-3.312,3.534-4.969,5.301
	c-0.734,0.783-1.469,1.564-2.204,2.345c-0.735,0.78-1.471,1.559-2.209,2.337l-1.107,1.165c-1.118,1.174-2.24,2.344-3.367,3.505
	c-0.733,0.757-1.47,1.512-2.209,2.262l-1.125,1.139l-1.129,1.132l-0.568,0.566l-1.139,1.127c-0.557,0.548-1.116,1.095-1.677,1.638
	l-0.031,0.029l-1.149,1.106l-1.097,1.042l-1.217,1.142c-1.163,1.084-2.335,2.154-3.519,3.209l-1.187,1.049
	c-0.611,0.535-1.225,1.065-1.842,1.592c-0.521,0.446-1.044,0.888-1.57,1.327l-1.412,1.166c-1.045,0.852-2.101,1.689-3.165,2.511
	c-0.597,0.462-1.195,0.92-1.798,1.371l-1.024,0.757c-1.233,0.898-2.479,1.776-3.741,2.631c-1.035,0.701-2.083,1.384-3.14,2.053
	c-0.547,0.346-1.097,0.687-1.649,1.024c-1.067,0.65-2.143,1.284-3.233,1.9c-0.916,0.517-1.84,1.021-2.774,1.512
	c-0.934,0.491-1.876,0.968-2.829,1.432l-1.436,0.685c-15.63,7.31-35.052,8.593-51.533,3.787c-0.506-0.148-1.012-0.302-1.513-0.461
	c-0.752-0.239-1.496-0.491-2.235-0.756l-1.466-0.547l-1.445-0.582l-1.423-0.617c-2.353-1.057-4.609-2.258-6.745-3.603l-1.266-0.826
	c-1.669-1.122-3.256-2.338-4.751-3.646l-1.103-0.999l-0.539-0.512c-0.711-0.689-1.398-1.401-2.059-2.136l-0.491-0.556
	c-3.887-4.481-6.822-9.797-8.467-15.952c-0.408-1.53-0.744-3.106-1.046-4.703l-0.09-0.48l-0.261-1.445l-0.085-0.483
	c-0.225-1.289-0.444-2.581-0.677-3.865l-0.271-1.44l-0.191-0.952c-0.13-0.634-0.268-1.262-0.416-1.885l-0.229-0.929
	c-0.159-0.616-0.328-1.224-0.512-1.825l-0.286-0.892l-0.151-0.441c-0.464-1.318-1.009-2.585-1.666-3.78l-0.455-0.786l-0.49-0.764
	l-0.259-0.374l-0.547-0.728c-0.662-0.836-1.406-1.618-2.247-2.339c-0.584-0.502-1.193-0.953-1.822-1.356l-0.523-0.32l-1.232-0.659
	l-0.318-0.149l-1.401-0.569l-1.074-0.349c-0.527-0.153-1.061-0.287-1.603-0.398l-0.504-0.096l-0.761-0.124l-0.112-0.017
	l-0.798-0.099l-0.086-0.009l-0.833-0.073l-0.061-0.005l-0.866-0.045l-0.033-0.002l-0.903-0.018h-0.006
	c-5.085-0.022-10.448,1.242-15.288,2.804c-17.881,5.77-34.633,14.517-49.742,25.566c-0.824,0.6-1.643,1.207-2.457,1.82l-0.675,0.512
	c-1.182,0.899-2.354,1.811-3.515,2.738l-0.54,0.433c-0.818,0.659-1.633,1.324-2.44,1.995c-4.908,4.085-9.612,8.419-14.093,12.98
	l-0.042,0.044c-0.596,0.606-1.188,1.219-1.775,1.833l-1.233,1.301c-0.952,1.014-1.894,2.036-2.823,3.071
	c-1.416,1.573-2.803,3.171-4.167,4.79c-0.482,0.572-0.961,1.146-1.436,1.723l-0.398,0.486c-0.592,0.726-1.181,1.456-1.764,2.19
	c-0.519,0.653-1.032,1.31-1.543,1.97c-0.542,0.702-1.08,1.407-1.613,2.117l-0.526,0.704c-0.511,0.686-1.017,1.375-1.518,2.067
	c-4.34,5.991-8.337,12.228-11.963,18.669c-0.317,0.563-0.632,1.129-0.944,1.695l-0.76,1.396c-0.294,0.546-0.586,1.092-0.874,1.641
	c-0.851,1.616-1.68,3.245-2.484,4.884l-0.618,1.272c-1.284,2.666-2.506,5.361-3.662,8.083c-1.292,3.042-2.506,6.117-3.633,9.221
	c-0.875,2.409-1.701,4.835-2.474,7.277c-0.457,1.441-0.896,2.888-1.317,4.34c-0.395,1.362-0.772,2.73-1.135,4.101l-0.23,0.88
	c-0.689,2.664-1.319,5.344-1.883,8.037l-0.278,1.357l-0.135,0.68c-0.203,1.029-0.398,2.058-0.582,3.09l-0.246,1.417l-0.097,0.578
	c-0.546,3.278-1,6.572-1.355,9.88l-0.039,0.369c-0.176,1.676-0.329,3.355-0.456,5.037c-0.13,1.741-0.234,3.484-0.31,5.231
	c-0.087,1.999-0.143,4.007-0.178,6.02l-0.018,1.252c-0.027,2.02-0.034,4.047-0.031,6.077c0.001,0.814,0.004,1.628,0.007,2.442
	l0.006,1.222l0.008,1.223c0.017,2.853,0.038,5.708,0.037,8.558c0,0.814-0.003,1.628-0.007,2.441
	c-0.005,0.814-0.012,1.627-0.022,2.439l-0.018,1.217c-0.013,0.812-0.03,1.622-0.051,2.431l-0.034,1.213
	c-0.039,1.214-0.085,2.423-0.144,3.631l-0.064,1.206c-0.044,0.804-0.095,1.605-0.152,2.406c-0.057,0.8-0.119,1.599-0.189,2.396
	c-0.07,0.798-0.146,1.593-0.229,2.386c-0.209,1.984-0.465,3.954-0.779,5.911l-0.231,1.379c-0.448,2.579-1,5.13-1.676,7.648
	l-0.152,0.558c-1.125,4.073-2.581,8.061-4.467,11.932c-3.052,6.268-7.036,11.89-11.701,17.026l-0.942,1.021
	c-0.477,0.509-0.963,1.011-1.453,1.51l-0.983,0.987c-0.495,0.492-0.995,0.979-1.504,1.461c-3.693,3.504-7.698,6.78-11.92,9.891
	l-0.951,0.692l-1.181,0.844c-7.908,5.602-16.482,10.686-25.122,15.629l-1.296,0.741c-13.028,7.431-26.135,14.591-37.268,22.786
	c-1.179,0.862-2.339,1.736-3.472,2.623l-1.061,0.84c-0.756,0.605-1.498,1.216-2.229,1.833c-0.588,0.495-1.167,0.996-1.739,1.5
	l-1.183,1.061c-1.439,1.313-2.82,2.657-4.14,4.036l-1.31,1.399c-2.304,2.531-4.399,5.179-6.243,7.97l-0.679,1.053
	c-0.545,0.865-1.062,1.744-1.559,2.637l-0.537,0.988c-3.253,6.149-5.337,12.972-5.901,20.692c-0.36,4.942-0.026,9.659,0.882,14.193
	c0.53,2.645,1.255,5.229,2.151,7.757c0.256,0.724,0.527,1.441,0.81,2.155c2.554,6.426,6.196,12.511,10.524,18.397
	c0.481,0.654,0.971,1.305,1.468,1.954c0.497,0.65,1.002,1.297,1.515,1.941c0.512,0.646,1.032,1.289,1.558,1.928l1.233,1.48
	l0.741,0.876l0.44,0.515c0.545,0.635,1.098,1.27,1.655,1.902c0.557,0.633,1.12,1.263,1.686,1.894l1.267,1.393
	c0.723,0.792,1.454,1.583,2.191,2.372c0.584,0.626,1.173,1.251,1.764,1.875c0.591,0.624,1.186,1.248,1.782,1.871l0.898,0.935
	l0.902,0.933l0.904,0.934l0.907,0.933c0.605,0.622,1.212,1.245,1.819,1.867l0.913,0.934c0.609,0.622,1.218,1.245,1.827,1.867
	c0.609,0.624,1.219,1.247,1.828,1.871c1.522,1.559,3.042,3.124,4.551,4.694c0.603,0.629,1.204,1.258,1.804,1.889l0.896,0.947
	l0.894,0.949c0.593,0.634,1.185,1.269,1.772,1.905c0.881,0.955,1.754,1.914,2.617,2.877c0.576,0.642,1.147,1.287,1.714,1.932
	c1.699,1.938,3.355,3.896,4.951,5.878l0.793,0.993c8.932,11.279,15.889,23.374,18.142,37.23c0.466,2.864,0.718,5.7,0.776,8.506
	c0.012,0.561,0.015,1.122,0.011,1.681l-0.011,0.837c-0.011,0.558-0.031,1.115-0.057,1.671l-0.045,0.833
	c-0.068,1.109-0.165,2.213-0.29,3.313c-0.182,1.599-0.424,3.188-0.722,4.768l-0.059,0.311l-0.129,0.654l-0.31,1.442l-0.084,0.369
	c-0.218,0.942-0.455,1.881-0.711,2.817l-0.354,1.255l-0.335,1.118l-0.156,0.498c-0.86,2.723-1.872,5.417-3.018,8.081l-0.644,1.463
	c-0.243,0.538-0.489,1.074-0.742,1.609l-0.35,0.736c-0.495,1.027-1.008,2.05-1.539,3.068c-0.274,0.525-0.553,1.05-0.836,1.573
	l-0.377,0.691c-0.296,0.537-0.595,1.072-0.9,1.606l-0.369,0.643l-0.513,0.88l-0.363,0.613l-0.543,0.902l-0.356,0.583l-0.572,0.925
	c-0.424,0.678-0.854,1.354-1.29,2.028l-0.631,0.966l-0.331,0.5l-0.66,0.986l-0.321,0.475l-0.688,1.004
	c-8.981,13.011-20.081,25.229-30.493,36.673c-2.253,2.478-4.504,5.042-6.722,7.681l-0.742,0.888
	c-0.52,0.625-1.037,1.254-1.554,1.886c-0.655,0.804-1.306,1.614-1.951,2.43l-0.875,1.112l-0.488,0.626l-0.313,0.404l-0.684,0.893
	l-0.832,1.098l-0.272,0.362l-0.407,0.544l-0.54,0.732l-0.764,1.044l-0.841,1.166l-1.053,1.487l-0.52,0.747l-0.679,0.99
	c-0.526,0.771-1.046,1.546-1.56,2.324l-0.301,0.458c-0.332,0.507-0.661,1.015-0.986,1.525c-0.326,0.509-0.648,1.021-0.967,1.533
	c-0.319,0.512-0.635,1.027-0.946,1.542c-0.313,0.515-0.621,1.032-0.926,1.549c-0.694,1.179-1.37,2.364-2.026,3.555l-0.194,0.353
	l-0.426,0.786c-0.423,0.787-0.838,1.577-1.243,2.37l-0.402,0.794c-0.398,0.794-0.786,1.589-1.165,2.387l-0.573,1.231l-0.282,0.617
	l-0.602,1.355c-0.233,0.535-0.462,1.071-0.685,1.608l-0.423,1.038l-0.458,1.157l-0.089,0.226l-0.307,0.809
	c-0.406,1.08-0.789,2.162-1.151,3.245l-0.443,1.369l-0.332,1.073c-0.164,0.543-0.321,1.088-0.473,1.631
	c-0.152,0.545-0.297,1.09-0.437,1.634c-0.279,1.089-0.533,2.18-0.761,3.272c-0.114,0.545-0.222,1.091-0.323,1.637l-0.147,0.82
	l-0.137,0.82c-0.083,0.512-0.158,1.024-0.228,1.537l-0.029,0.208l-0.178,1.449c-0.064,0.575-0.12,1.15-0.169,1.725
	c-0.069,0.82-0.122,1.639-0.157,2.458l-0.03,0.837c-0.024,0.813-0.032,1.625-0.022,2.436l0.016,0.817
	c0.029,1.089,0.088,2.177,0.181,3.264l0.075,0.814c0.19,1.9,0.481,3.795,0.878,5.681c0.398,1.886,0.902,3.764,1.52,5.633
	c0.265,0.8,0.55,1.599,0.857,2.395c0.409,1.062,0.857,2.12,1.343,3.174c0.404,0.877,0.824,1.734,1.261,2.573
	c0.871,1.678,1.804,3.284,2.793,4.821c0.66,1.025,1.345,2.02,2.054,2.985c2.305,3.139,4.863,5.975,7.63,8.56l0.641,0.592
	c6.458,5.878,14.005,10.441,22.084,14.336c1.346,0.649,2.708,1.28,4.081,1.895c4.67,2.091,9.48,4.003,14.329,5.851l0.856,0.325
	c1.142,0.433,2.286,0.864,3.43,1.292l0.858,0.321c0.573,0.214,1.145,0.427,1.717,0.641c3.719,1.387,7.433,2.771,11.096,4.203
	c0.845,0.33,1.688,0.663,2.528,1l0.838,0.337c1.675,0.677,3.336,1.368,4.978,2.076l0.82,0.357c0.545,0.238,1.089,0.479,1.629,0.722
	l0.81,0.367c3.771,1.719,7.428,3.56,10.911,5.587c16.517,9.613,24.503,20.828,26.141,31.907l0.111,0.83
	c0.165,1.382,0.232,2.762,0.205,4.135l-0.027,0.828l-0.051,0.823c-0.078,1.056-0.213,2.107-0.399,3.153l-0.178,0.929
	c-0.374,1.787-0.904,3.555-1.576,5.297l-0.248,0.625c-0.383,0.941-0.807,1.874-1.273,2.797l-0.399,0.769l-0.418,0.765l-0.25,0.436
	l-0.367,0.625l-0.571,0.927l-0.343,0.531l-0.323,0.49l-0.207,0.301l-0.607,0.866c-0.424,0.591-0.863,1.177-1.322,1.757l-0.257,0.319
	l-1.24,1.484c-0.705,0.812-1.44,1.611-2.209,2.397l-0.674,0.677c-0.68,0.673-1.385,1.335-2.112,1.985l-0.734,0.646l-0.749,0.639
	l-0.763,0.631c-0.756,0.615-1.533,1.218-2.33,1.809l-0.16,0.117c-0.77,0.561-1.559,1.109-2.365,1.647
	c-0.856,0.57-1.73,1.126-2.623,1.668l-1.45,0.859l-0.92,0.522c-1.234,0.689-2.5,1.351-3.795,1.984
	c-1.111,0.544-2.245,1.065-3.398,1.565c-0.727,0.316-1.462,0.622-2.205,0.919c-1.284,0.514-2.591,1.001-3.92,1.459
	c-0.831,0.287-1.671,0.562-2.518,0.827l-0.667,0.204c-0.513,0.156-1.03,0.308-1.549,0.454l-0.616,0.172
	c-3.955,1.088-8.063,1.926-12.283,2.477c-13.799,1.804-27.722,1.387-41.698-0.232c-1.553-0.18-3.106-0.374-4.661-0.582
	c-1.553-0.208-3.108-0.429-4.663-0.662c-0.778-0.117-1.556-0.237-2.334-0.36c-3.888-0.613-7.779-1.295-11.672-2.028
	c-7.785-1.464-15.574-3.124-23.355-4.803c-4.668-1.007-9.334-2.022-13.994-3.005c-2.33-0.493-4.659-0.977-6.985-1.449
	c-13.186-2.673-26.315-4.95-39.329-5.967l-0.306-0.023c-1.223-0.095-2.445-0.185-3.667-0.271l-1.446-0.1
	c-0.847-0.057-1.695-0.112-2.543-0.165c-0.575-0.036-1.15-0.073-1.724-0.107c-0.621-0.037-1.243-0.071-1.864-0.106
	c-1.513-0.085-3.027-0.163-4.54-0.236l-0.492-0.023c-43.138-2.016-86.534,1.237-128.83,9.994
	c-64.11,13.274-125.455,39.75-178.551,77.349l0.016-0.007c-24.44,17.27-47.139,36.893-67.558,58.674
	c-5.933,6.328-11.856,13.772-15.784,21.647l-0.401,0.819l-0.356,0.757c-4.031,8.747-5.474,17.965-1.656,26.739
	c4.721,10.85,14.403,15.605,25.863,16.588l1.234,0.09c1.241,0.077,2.501,0.111,3.777,0.105h0.005c0.63-0.003,1.264-0.015,1.9-0.036
	l1.312-0.057l1.302-0.081l0.654-0.051c0.851-0.068,1.705-0.152,2.564-0.251l0.727-0.086c0.853-0.105,1.708-0.224,2.566-0.356
	c0.695-0.107,1.389-0.222,2.085-0.345l1.335-0.247l0.667-0.131l1.218-0.251l0.261-0.056c0.568-0.121,1.134-0.249,1.701-0.38
	l0.312-0.073c0.999-0.235,1.996-0.485,2.989-0.749l0.354-0.094l0.961-0.263l0.369-0.103l0.94-0.268l1.044-0.308
	c0.521-0.156,1.04-0.315,1.558-0.479c0.609-0.192,1.216-0.388,1.821-0.589l0.641-0.214c0.655-0.221,1.309-0.447,1.957-0.679
	l0.46-0.165c1.347-0.485,2.676-0.988,3.981-1.507l0.33-0.131c0.95-0.381,1.888-0.77,2.811-1.166l0.168-0.072
	c0.766-0.328,1.52-0.661,2.264-0.998c12.062-5.465,24.125-10.929,36.188-16.394c25.375-11.495,50.751-22.992,76.127-34.488
	c28.529-12.923,64.783-24.966,88.592-4.617l0.736,0.645l0.275,0.248l0.424,0.391l0.349,0.327l0.06,0.059
	c2.476,2.367,4.569,4.924,6.355,7.634l0.059,0.057c22.33,34.022-5.66,93.17,21.368,127.781
	c26.567,34.021,80.405,17.193,118.817-2.501c36.767-18.852,73.536-37.703,110.304-56.556c33.272-17.059,76.455-33.274,105.05-9.184
	c31.061,26.168,17.685,75.194,18.354,115.803c1.271,77.125,74.084,145.644,151.143,142.227
	c67.377-2.988,123.309-51.463,169.674-100.443c46.366-48.979,92.493-103.347,156.455-124.737
	c113.972-38.112,230.425,41.366,348.099,65.764c122.404,25.378,256.333-13.805,345.758-101.155
	c28.148-27.496,52.551-60.565,62.917-98.281l0.131-0.483c0.146-0.537,0.289-1.074,0.429-1.613l0.175-0.681l0.359-1.435l0.185-0.763
	l0.319-1.363l0.189-0.83l0.163-0.741l0.064-0.299l0.065-0.302l0.174-0.812l0.06-0.291c0.114-0.552,0.225-1.104,0.332-1.658
	l0.035-0.173c0.268-1.391,0.513-2.781,0.741-4.174c0.163-0.993,0.315-1.987,0.457-2.981c0.189-1.328,0.36-2.656,0.513-3.985
	C2134.683,1229.222,2134.591,1216.914,2133.214,1204.7z"/>
<path style="fill:#E1F2FC;" d="M2134.285,1222.569c-0.005-0.641-0.011-1.283-0.022-1.924l-0.009-0.421
	c-0.012-0.591-0.027-1.18-0.046-1.771l-0.01-0.331c-0.021-0.636-0.046-1.272-0.075-1.908l-0.026-0.554
	c-0.028-0.595-0.061-1.19-0.095-1.784l-0.04-0.645c-0.034-0.545-0.071-1.089-0.111-1.633l-0.043-0.582
	c-0.039-0.516-0.08-1.032-0.124-1.546l-0.061-0.714c-0.05-0.555-0.102-1.108-0.157-1.663l-0.078-0.768
	c-0.054-0.534-0.111-1.069-0.172-1.603l-0.091-0.781l-0.148-1.227l-0.12-0.953l-0.19-1.419l-0.126-0.904l-0.195-1.329l-0.178-1.156
	l-0.138-0.861c-0.088-0.544-0.178-1.089-0.272-1.632l-0.128-0.744c-0.128-0.733-0.261-1.466-0.399-2.198l-0.046-0.252l-0.091-0.49
	l-0.138-0.698l-0.098-0.493c-0.134-0.676-0.272-1.352-0.414-2.027l-0.098-0.464c-0.381-1.792-0.784-3.581-1.216-5.364
	c-0.4-1.652-0.825-3.3-1.268-4.943l-0.059-0.213c-0.182-0.672-0.367-1.343-0.556-2.013l-0.195-0.689l-0.271-0.942
	c-0.147-0.505-0.296-1.01-0.446-1.514l-0.177-0.583l-0.404-1.321l-0.155-0.505c-0.182-0.582-0.366-1.162-0.553-1.742l-0.136-0.421
	c-0.199-0.616-0.401-1.23-0.606-1.844c-0.369-1.105-0.745-2.209-1.132-3.31c-0.517-1.465-1.048-2.925-1.596-4.38l-0.318-0.832
	c-0.448-1.175-0.904-2.349-1.371-3.516l-0.558-1.372l-0.493-1.2c-0.241-0.582-0.484-1.164-0.729-1.744
	c-0.608-1.433-1.232-2.86-1.869-4.281c-1.274-2.841-2.606-5.658-3.991-8.447c-1.039-2.091-2.11-4.167-3.207-6.227
	c-0.504-0.945-1.016-1.885-1.532-2.823l-0.37-0.667c-0.409-0.739-0.822-1.474-1.238-2.208l-0.24-0.427l-0.151-0.261
	c-1.056-1.847-2.136-3.679-3.236-5.495l-0.419-0.687c-0.436-0.713-0.875-1.424-1.317-2.132l-0.407-0.651
	c-0.567-0.901-1.137-1.799-1.714-2.693c-0.477-0.739-0.958-1.474-1.442-2.207l-0.328-0.494c-0.377-0.569-0.756-1.137-1.137-1.703
	l-0.391-0.579c-0.379-0.561-0.761-1.12-1.143-1.676l-0.343-0.499c-0.448-0.648-0.897-1.295-1.349-1.939l-0.115-0.164l-0.021-0.031
	c-0.744-1.057-1.495-2.107-2.251-3.151l-0.255-0.351c-0.735-1.013-1.476-2.02-2.224-3.02l-0.285-0.382
	c-0.751-1.003-1.509-2.001-2.273-2.993l-0.241-0.312c-0.79-1.024-1.585-2.042-2.388-3.053l-0.029-0.037l-0.135-0.167
	c-0.458-0.577-0.919-1.152-1.382-1.725l-0.213-0.266l-0.201-0.245c-0.759-0.935-1.522-1.867-2.291-2.793l-0.253-0.302
	c-0.805-0.964-1.613-1.924-2.428-2.878l-0.017-0.019c-0.821-0.959-1.647-1.91-2.479-2.858l-0.258-0.295
	c-0.804-0.913-1.613-1.82-2.427-2.721l-0.326-0.361c-0.804-0.888-1.613-1.772-2.427-2.65l-0.37-0.398
	c-0.826-0.888-1.656-1.771-2.492-2.648l-0.2-0.209c-0.86-0.901-1.725-1.797-2.595-2.687l-0.097-0.1
	c-0.864-0.884-1.734-1.76-2.609-2.632l-0.334-0.333c-0.842-0.838-1.688-1.67-2.54-2.498l-0.423-0.411
	c-0.848-0.821-1.701-1.638-2.558-2.451l-0.381-0.359c-0.887-0.837-1.777-1.671-2.674-2.498l-0.144-0.133
	c-0.922-0.85-1.848-1.694-2.78-2.533l-0.141-0.128c-0.912-0.82-1.829-1.634-2.75-2.443l-0.378-0.332
	c-0.892-0.782-1.788-1.56-2.689-2.333l-0.444-0.38c-0.904-0.774-1.813-1.543-2.725-2.307l-0.344-0.286
	c-0.958-0.801-1.92-1.596-2.888-2.386l-0.05-0.041c-0.979-0.799-1.964-1.593-2.954-2.382l-0.222-0.178
	c-0.948-0.756-1.902-1.505-2.858-2.25l-0.438-0.342c-0.93-0.722-1.863-1.44-2.8-2.153l-0.49-0.373
	c-0.95-0.72-1.904-1.436-2.861-2.149l-0.351-0.259c-2.028-1.502-4.072-2.985-6.133-4.447l-0.3-0.214
	c-0.99-0.701-1.983-1.395-2.98-2.086l-0.457-0.317c-0.98-0.677-1.964-1.351-2.951-2.019l-0.459-0.311
	c-1.009-0.682-2.021-1.358-3.037-2.031l-0.272-0.179c-1.036-0.684-2.074-1.364-3.117-2.039l-0.14-0.09
	c-1.039-0.673-2.083-1.339-3.13-2.002l-0.424-0.268c-1.02-0.644-2.043-1.283-3.07-1.918l-0.455-0.281
	c-1.021-0.63-2.046-1.256-3.074-1.878l-0.485-0.293c-1.046-0.63-2.096-1.258-3.148-1.88l-0.27-0.158
	c-1.069-0.631-2.141-1.257-3.216-1.879l-0.17-0.098c-1.076-0.621-2.156-1.237-3.238-1.85l-0.454-0.257
	c-1.021-0.577-2.045-1.148-3.071-1.717l-0.673-0.372c-1.027-0.567-2.057-1.129-3.091-1.688l-0.463-0.25
	c-1.088-0.587-2.179-1.171-3.272-1.75l-0.255-0.133c-1.092-0.577-2.186-1.149-3.284-1.718l-0.247-0.128
	c-1.093-0.565-2.19-1.126-3.29-1.682l-0.534-0.271c-1.05-0.531-2.104-1.058-3.16-1.581l-0.657-0.325
	c-1.069-0.529-2.141-1.053-3.216-1.575l-0.412-0.199c-1.121-0.542-2.244-1.08-3.37-1.614l-0.29-0.136
	c-1.088-0.515-2.178-1.026-3.271-1.532l-0.408-0.191c-1.084-0.502-2.171-1-3.259-1.494l-0.669-0.303
	c-1.072-0.486-2.145-0.968-3.222-1.446l-0.598-0.265c-1.102-0.487-2.205-0.972-3.311-1.453l-0.452-0.195
	c-2.354-1.02-4.718-2.024-7.091-3.011l-0.389-0.163c-1.117-0.463-2.236-0.923-3.357-1.379l-0.665-0.269
	c-1.098-0.446-2.198-0.889-3.3-1.328l-0.603-0.239c-1.126-0.447-2.253-0.891-3.382-1.33l-0.478-0.185
	c-1.128-0.438-2.255-0.873-3.386-1.304l-0.225-0.085c-1.151-0.438-2.305-0.872-3.459-1.303l-0.62-0.231
	c-1.125-0.418-2.251-0.832-3.378-1.244l-0.602-0.219c-1.132-0.411-2.265-0.82-3.399-1.224l-0.584-0.207
	c-1.164-0.414-2.329-0.825-3.495-1.232l-0.344-0.119c-1.164-0.406-2.33-0.807-3.497-1.205l-0.269-0.093
	c-1.191-0.406-2.384-0.808-3.578-1.205l-0.522-0.174c-1.159-0.386-2.319-0.768-3.479-1.147l-0.595-0.194
	c-1.148-0.374-2.297-0.744-3.448-1.111l-0.594-0.189c-1.173-0.373-2.348-0.744-3.523-1.111l-0.346-0.107
	c-1.137-0.354-2.276-0.705-3.415-1.053l-0.46-0.141c-1.168-0.355-2.337-0.707-3.506-1.056l-0.643-0.191
	c-1.154-0.343-2.31-0.683-3.466-1.02l-0.579-0.169c-1.166-0.338-2.334-0.674-3.502-1.007l-0.563-0.16
	c-1.217-0.346-2.436-0.689-3.656-1.028c-2.74-0.762-5.486-1.507-8.233-2.236c-1.832-0.486-3.665-0.964-5.5-1.435
	c-1.833-0.471-3.669-0.935-5.506-1.392c-2.754-0.685-5.51-1.354-8.267-2.006c-2.758-0.653-5.517-1.291-8.275-1.911
	c-2.759-0.622-5.518-1.228-8.277-1.82c-2.759-0.591-5.518-1.166-8.275-1.728c-2.758-0.561-5.514-1.107-8.267-1.639
	c-0.918-0.178-1.836-0.354-2.754-0.527c-3.474-0.659-6.979-1.318-10.505-1.982c-1.512-0.286-3.027-0.572-4.545-0.86
	c-0.506-0.096-1.012-0.192-1.519-0.288c-4.055-0.771-8.131-1.557-12.218-2.366c-1.022-0.203-2.044-0.407-3.067-0.612
	c-0.662-0.133-1.324-0.267-1.985-0.402h0c0.577,0.001,1.155,0.001,1.731,0.001c-54.516-11-110.087-26.931-137.585-73.244
	c-26.384-44.435-15.872-102.071,6.75-148.535c22.621-46.464,56.113-87.142,77.082-134.375c11.665-26.272,19.191-56.878,8.188-83.434
	c-12.303-29.695-45.965-46.666-78.107-46.419c-32.142,0.246-62.599,14.928-88.762,33.602c-1.392,0.994-2.777,2-4.156,3.018
	c-10.331,7.616-20.325,15.792-30.654,23.395c-10.129,7.457-20.579,14.363-31.985,19.648c-19.905,9.223-44.224,12.502-64.009,4.455
	c-4.656-1.894-9.058-4.414-13.096-7.632c-21.948-17.494-25.508-48.255-21.88-76.969l0.024,0.05
	c0.668-5.302,1.552-10.543,2.642-15.61c1.964-9.139,4.307-18.384,6.442-27.656c0.119-0.516,0.237-1.031,0.354-1.546
	c0.234-1.031,0.466-2.062,0.693-3.093c0.455-2.063,0.896-4.126,1.314-6.189c0.314-1.547,0.615-3.095,0.901-4.641
	c0.095-0.515,0.19-1.031,0.282-1.547c0.735-4.124,1.359-8.245,1.818-12.354c0.229-2.055,0.418-4.108,0.558-6.157
	c0.069-1.025,0.128-2.048,0.174-3.071c0.114-2.557,0.148-5.108,0.09-7.651c-0.023-1.017-0.061-2.033-0.114-3.048
	c-0.374-7.103-1.512-14.141-3.69-21.077c-0.374-1.191-0.778-2.367-1.21-3.528c-0.649-1.742-1.361-3.45-2.136-5.123
	c-0.258-0.558-0.523-1.112-0.795-1.661c-0.543-1.101-1.113-2.184-1.708-3.254c-0.298-0.534-0.602-1.064-0.912-1.59
	c-9.624-16.312-25.296-28.769-43.283-36.281c-0.58-0.242-1.163-0.48-1.748-0.711c-1.17-0.464-2.349-0.907-3.535-1.33
	c-1.782-0.634-3.581-1.219-5.394-1.757c-1.209-0.359-2.425-0.696-3.646-1.011c-6.107-1.576-12.354-2.61-18.617-3.063
	c-1.253-0.09-2.506-0.158-3.759-0.201c-2.506-0.088-5.01-0.082-7.504,0.021c-19.331,0.796-37.911,6.359-55.189,15.046
	c-1.115,0.561-2.223,1.134-3.328,1.72c-2.759,1.465-5.484,3.009-8.172,4.624c-1.613,0.969-3.212,1.964-4.797,2.983
	c-1.057,0.679-2.107,1.37-3.152,2.07c-0.606,0.407-1.211,0.819-1.814,1.234l-0.852,0.591l-0.932,0.651l-1.017,0.721l-0.715,0.512
	l-1.107,0.799l-0.53,0.39c-0.752,0.552-1.502,1.11-2.247,1.672l-0.547,0.413l-1,0.765l-0.806,0.623l-0.953,0.745l-0.778,0.614
	l-0.987,0.784l-0.823,0.667l-1.367,1.116l-1.123,0.929l-0.727,0.611l-1.005,0.849l-0.755,0.647l-1.024,0.885l-0.665,0.579
	c-0.508,0.446-1.016,0.895-1.52,1.344l-0.218,0.195c-0.536,0.478-1.067,0.959-1.598,1.441l-0.507,0.466l-1.212,1.117l-0.484,0.451
	l-1.285,1.21l-0.392,0.37c-0.554,0.528-1.107,1.057-1.655,1.59c-8.315,8.067-16.221,16.743-24.252,25.246l-1.269,1.341
	c-1.27,1.339-2.544,2.673-3.824,3.999c-3.839,3.976-7.732,7.878-11.734,11.619c-1.779,1.663-3.579,3.295-5.406,4.887
	c-0.609,0.532-1.221,1.058-1.836,1.58c-1.23,1.044-2.473,2.069-3.729,3.075c-1.256,1.005-2.527,1.99-3.813,2.952l-1.383,1.021
	l-0.002,0c-0.807,0.59-1.62,1.17-2.441,1.74c-0.861,0.599-1.728,1.186-2.603,1.762c-0.876,0.577-1.759,1.142-2.65,1.696
	c-1.337,0.831-2.691,1.634-4.065,2.41l-1.381,0.766c-1.387,0.756-2.794,1.483-4.222,2.179l-1.436,0.685
	c-4.088,1.912-8.435,3.411-12.921,4.496c-0.528,0.128-1.058,0.25-1.589,0.366c-2.922,0.64-5.898,1.106-8.892,1.4
	c-1.361,0.133-2.726,0.23-4.093,0.292l-0.82,0.033c-0.819,0.028-1.64,0.044-2.46,0.046l-0.818-0.002
	c-0.82-0.006-1.638-0.025-2.455-0.056c-0.545-0.022-1.089-0.048-1.632-0.081c-1.358-0.082-2.71-0.2-4.055-0.354
	c-0.538-0.061-1.074-0.129-1.609-0.201l-0.801-0.114c-1.067-0.158-2.127-0.339-3.18-0.542c-0.526-0.102-1.051-0.21-1.573-0.322
	c-1.407-0.305-2.798-0.653-4.17-1.042c-2.781-0.789-5.481-1.751-8.067-2.884l-1.398-0.636l-1.098-0.531
	c-11.268-5.6-20.037-14.682-23.401-27.275c-0.174-0.65-0.334-1.309-0.484-1.973c-0.15-0.666-0.29-1.337-0.423-2.013
	c-0.267-1.353-0.505-2.721-0.742-4.092l-0.167-0.967c-0.112-0.645-0.225-1.289-0.342-1.931l-0.178-0.961l-0.091-0.479l-0.191-0.953
	l-0.308-1.416l-0.338-1.396l-0.247-0.919c-0.765-2.737-1.786-5.313-3.313-7.57l-0.807-1.102l-0.587-0.703l-0.962-1.003l-0.698-0.633
	l-1.447-1.108l-1.14-0.709c-0.904-0.513-1.846-0.935-2.82-1.277l-0.842-0.272c-1.273-0.382-2.594-0.633-3.946-0.775l-1.362-0.107
	l-1.379-0.04l-0.463,0.002c-2.01,0.022-4.058,0.239-6.098,0.59c-0.784,0.136-1.566,0.29-2.346,0.461
	c-0.623,0.138-1.243,0.285-1.86,0.441c-1.54,0.392-3.054,0.838-4.521,1.311c-1.108,0.357-2.214,0.727-3.314,1.108
	c-2.75,0.952-5.474,1.973-8.166,3.063c-1.616,0.654-3.221,1.333-4.814,2.035c-1.063,0.469-2.12,0.947-3.173,1.437
	c-0.527,0.245-1.052,0.491-1.575,0.742c-2.618,1.249-5.205,2.564-7.758,3.942c-0.51,0.276-1.019,0.553-1.527,0.834
	c-2.032,1.122-4.04,2.283-6.026,3.482l-1.485,0.908c-4.071,2.513-8.042,5.19-11.907,8.015l-0.02,0.016
	c-39.701,29.039-68.054,73.969-75.732,122.552c-0.362,2.293-0.678,4.595-0.948,6.904c-0.269,2.309-0.492,4.623-0.666,6.944
	c-0.131,1.74-0.234,3.484-0.311,5.23c-0.21,4.816-0.241,9.685-0.226,14.57c0.003,0.814,0.007,1.628,0.011,2.444
	c0.004,0.814,0.01,1.63,0.015,2.444c0.004,0.816,0.009,1.631,0.014,2.446c0.005,0.815,0.009,1.631,0.012,2.445
	c0.004,1.223,0.005,2.444,0.001,3.666c-0.004,1.22-0.012,2.44-0.027,3.659c-0.011,0.812-0.023,1.623-0.041,2.434
	c-0.034,1.621-0.083,3.237-0.151,4.85c-0.034,0.806-0.074,1.611-0.118,2.414c-0.045,0.804-0.095,1.606-0.152,2.406
	c-0.057,0.8-0.119,1.6-0.189,2.396l-0.11,1.194c-0.153,1.59-0.335,3.173-0.549,4.747c-0.094,0.689-0.195,1.375-0.302,2.061
	c-0.268,1.713-0.58,3.414-0.94,5.104l-0.222,1.012c-0.781,3.464-1.777,6.871-3.042,10.206c-0.281,0.741-0.575,1.479-0.883,2.213
	c-0.463,1.101-0.957,2.194-1.484,3.278c-4.883,10.029-12.155,18.403-20.778,25.78c-0.718,0.615-1.447,1.223-2.184,1.824
	c-1.841,1.503-3.738,2.966-5.68,4.393l-0.152,0.11l-0.025,0.018l-0.439,0.318l-1.252,0.905c-0.555,0.397-1.113,0.79-1.675,1.181
	c-0.798,0.556-1.601,1.106-2.41,1.651c-0.81,0.546-1.625,1.086-2.445,1.623c-2.462,1.61-4.968,3.182-7.506,4.726
	c-1.268,0.772-2.545,1.537-3.828,2.296c-0.855,0.506-1.711,1.011-2.571,1.512c-2.576,1.505-5.17,2.989-7.764,4.466l-1.297,0.737
	c-1.73,0.982-3.458,1.961-5.18,2.939l-1.29,0.735c-3.009,1.713-5.996,3.427-8.936,5.161c-1.26,0.742-2.512,1.489-3.752,2.239
	c-0.607,0.367-1.21,0.735-1.811,1.105l-0.336,0.206c-0.556,0.343-1.109,0.686-1.659,1.031l-0.419,0.263
	c-0.565,0.355-1.129,0.712-1.688,1.07l-0.271,0.175c-1.218,0.781-2.42,1.571-3.607,2.368l-0.16,0.108
	c-0.589,0.397-1.173,0.796-1.755,1.197l-0.183,0.127c-0.585,0.406-1.166,0.813-1.74,1.223l-0.104,0.074
	c-0.64,0.457-1.276,0.917-1.904,1.38c-0.645,0.476-1.284,0.956-1.916,1.438c-2.166,1.658-4.249,3.36-6.232,5.116
	c-0.66,0.585-1.311,1.177-1.948,1.775l-0.949,0.901l-1.36,1.343l-0.056,0.057l-1.292,1.338l-0.054,0.056
	c-0.873,0.929-1.72,1.874-2.536,2.835c-0.549,0.648-1.084,1.304-1.606,1.966c-1.823,2.324-3.471,4.746-4.916,7.285
	c-1.033,1.814-1.962,3.686-2.779,5.624c-0.327,0.775-0.636,1.56-0.926,2.357c-0.436,1.194-0.829,2.414-1.179,3.659
	c-0.349,1.244-0.656,2.515-0.916,3.811c-0.173,0.865-0.326,1.742-0.458,2.631c-0.198,1.334-0.349,2.695-0.45,4.086
	c-0.15,2.059-0.18,4.08-0.098,6.064c0.066,1.586,0.204,3.151,0.408,4.694c0.153,1.157,0.345,2.303,0.571,3.436
	c0.227,1.133,0.49,2.256,0.788,3.368c0.198,0.741,0.411,1.476,0.639,2.209c0.228,0.731,0.47,1.458,0.726,2.18
	c0.256,0.723,0.527,1.441,0.81,2.155c0.283,0.713,0.58,1.424,0.89,2.13c0.62,1.412,1.292,2.807,2.011,4.188
	c0.539,1.036,1.105,2.064,1.694,3.083c0.32,0.552,0.647,1.103,0.981,1.651c1.336,2.193,2.783,4.352,4.321,6.485
	c1.154,1.599,2.36,3.183,3.609,4.755c0.576,0.725,1.161,1.448,1.757,2.169c1.783,2.161,3.641,4.3,5.556,6.426
	c1.985,2.204,4.03,4.394,6.11,6.577c2.08,2.183,4.196,4.359,6.323,6.536c0.608,0.622,1.216,1.245,1.825,1.868
	c1.472,1.504,2.946,3.011,4.414,4.521c0.525,0.54,1.049,1.081,1.572,1.622c0.944,0.978,1.885,1.957,2.821,2.94
	c0.509,0.534,1.017,1.07,1.522,1.607c0.484,0.513,0.967,1.028,1.446,1.544c1.476,1.588,2.933,3.185,4.361,4.795l0.853,0.967
	c1.452,1.656,2.871,3.326,4.249,5.013c3.918,4.798,7.502,9.735,10.534,14.889c0.467,0.793,0.921,1.59,1.36,2.392l0.65,1.209
	c0.425,0.809,0.837,1.623,1.234,2.443l0.584,1.234c0.381,0.826,0.747,1.657,1.097,2.495c0.35,0.837,0.683,1.682,1,2.531l0.519,1.441
	c1.171,3.377,2.074,6.856,2.659,10.454c0.24,1.477,0.424,2.946,0.553,4.409c0.052,0.584,0.095,1.168,0.129,1.75l0.046,0.873
	c0.035,0.774,0.054,1.547,0.06,2.317v0.839c-0.016,2.296-0.162,4.573-0.424,6.831c-0.116,0.996-0.255,1.99-0.417,2.979l-0.045,0.271
	c-0.312,1.86-0.701,3.708-1.165,5.543c-0.202,0.805-0.421,1.61-0.652,2.41l-0.356,1.199c-0.367,1.199-0.764,2.39-1.188,3.576
	c-0.283,0.791-0.579,1.579-0.886,2.365c-0.205,0.524-0.416,1.046-0.631,1.567l-0.471,1.117c-0.346,0.808-0.705,1.614-1.075,2.416
	l-0.281,0.605c-1.249,2.659-2.625,5.288-4.109,7.887l-0.317,0.551l-0.719,1.23l-0.626,1.046l-0.451,0.738l-0.749,1.209l-0.945,1.487
	l-0.774,1.188l-0.519,0.783c-0.873,1.311-1.77,2.614-2.686,3.91l-0.518,0.727l-0.903,1.251l-0.286,0.391
	c-0.791,1.083-1.596,2.16-2.412,3.231l-0.259,0.339l-0.844,1.098c-0.631,0.814-1.267,1.625-1.909,2.433
	c-0.794,0.999-1.597,1.995-2.407,2.985l-0.629,0.766c-0.438,0.532-0.877,1.061-1.319,1.59l-0.19,0.227
	c-5.767,6.894-11.81,13.54-17.637,19.945c-20.115,22.11-39.916,51.056-38.774,79.094l0.039,0.817
	c0.06,1.088,0.152,2.175,0.278,3.259l0.1,0.813c0.106,0.813,0.231,1.624,0.376,2.434l0.151,0.811c0.21,1.079,0.455,2.156,0.735,3.23
	c0.139,0.537,0.289,1.073,0.447,1.608c0.237,0.803,0.494,1.604,0.773,2.404c0.186,0.533,0.382,1.065,0.586,1.595
	c0.409,1.063,0.857,2.121,1.343,3.174l0.409,0.87c0.277,0.576,0.56,1.144,0.851,1.703c0.581,1.119,1.189,2.206,1.823,3.262
	c0.317,0.527,0.641,1.047,0.971,1.56c1.155,1.794,2.387,3.495,3.69,5.111c0.558,0.692,1.129,1.37,1.713,2.033l0.588,0.658
	c2.96,3.263,6.224,6.159,9.723,8.771l1.412,1.029c5.223,3.72,10.932,6.851,16.906,9.643l0.815,0.379
	c1.363,0.627,2.74,1.239,4.127,1.836c1.11,0.478,2.226,0.948,3.348,1.409c0.561,0.231,1.123,0.46,1.687,0.687l0.846,0.34
	c2.259,0.904,4.535,1.782,6.82,2.648c1.997,0.759,4.002,1.507,6.005,2.255c0.573,0.213,1.144,0.427,1.716,0.641
	c1.143,0.426,2.286,0.854,3.426,1.283c0.57,0.214,1.14,0.43,1.707,0.645l0.852,0.324c0.568,0.216,1.135,0.433,1.701,0.651
	c1.132,0.437,2.259,0.877,3.381,1.323l1.364,0.546c0.851,0.343,1.7,0.689,2.542,1.039c0.738,0.307,1.474,0.616,2.205,0.93
	c5.122,2.193,10.07,4.563,14.715,7.266c7.082,4.122,12.596,8.539,16.714,13.112l0.805,0.917l0.845,1.017l0.406,0.509
	c0.45,0.573,0.878,1.148,1.286,1.725c0.816,1.153,1.549,2.315,2.202,3.481c0.327,0.582,0.633,1.167,0.92,1.753
	c0.718,1.463,1.313,2.932,1.789,4.404c0.18,0.554,0.344,1.108,0.489,1.663l0.208,0.832c0.13,0.554,0.244,1.108,0.342,1.663
	c0.097,0.554,0.18,1.108,0.246,1.661c0.066,0.554,0.117,1.107,0.151,1.66c0.035,0.552,0.054,1.104,0.059,1.655
	c0.004,0.551-0.007,1.101-0.033,1.649l-0.049,0.823c-0.041,0.548-0.096,1.094-0.167,1.639c-0.105,0.819-0.243,1.633-0.412,2.443
	c-0.226,1.08-0.508,2.154-0.844,3.218l-0.263,0.798c-0.181,0.53-0.376,1.058-0.585,1.583c-0.208,0.525-0.43,1.048-0.664,1.568
	c-0.234,0.52-0.481,1.038-0.741,1.552l-0.399,0.77c-0.272,0.511-0.557,1.019-0.853,1.524c-0.446,0.757-0.918,1.508-1.418,2.25
	l-1.034,1.473c-1.068,1.463-2.24,2.889-3.508,4.277l-1.3,1.373c-0.665,0.681-1.355,1.349-2.067,2.008l-1.453,1.301
	c-1.331,1.153-2.735,2.269-4.203,3.343l-1.333,0.953c-0.558,0.389-1.126,0.773-1.703,1.15c-9.798,6.408-22.053,11.02-35.428,12.768
	c-0.575,0.075-1.15,0.147-1.726,0.214c-1.726,0.203-3.454,0.371-5.184,0.508c-0.769,0.06-1.537,0.114-2.307,0.163
	c-2.308,0.144-4.62,0.234-6.933,0.272c-1.543,0.026-3.087,0.029-4.632,0.011c-23.175-0.271-46.596-5.293-69.934-10.338
	c-2.333-0.505-4.667-1.009-6.998-1.509c-5.441-1.167-10.875-2.309-16.299-3.367c-0.775-0.151-1.549-0.301-2.323-0.448
	c-1.548-0.294-3.097-0.583-4.644-0.861c-9.281-1.669-18.525-3.015-27.711-3.733c-1.346-0.105-2.693-0.204-4.04-0.298l-1.28-0.088
	c-0.921-0.063-1.845-0.123-2.767-0.181c-0.513-0.031-1.025-0.065-1.537-0.095c-0.84-0.05-1.679-0.096-2.52-0.143
	c-1.256-0.068-2.512-0.133-3.768-0.194l-0.747-0.035c-1.07-0.049-2.14-0.094-3.211-0.138c-0.685-0.027-1.371-0.054-2.056-0.078
	l-0.664-0.024c-0.986-0.034-1.97-0.065-2.956-0.094c-0.736-0.022-1.473-0.042-2.208-0.06l-0.023-0.001
	c-25.859-0.644-51.768,0.624-77.439,3.811l0.063,0.007c-13.499,1.668-26.939,3.816-40.261,6.574
	c-64.11,13.274-125.455,39.75-178.551,77.349l0.014-0.006l50.824-21.907c0.557-0.248,1.117-0.498,1.676-0.747
	c28.276-2.542,56.846-2.125,84.744,0.673c28.829,2.891,57.554,8.554,84.946,18.1c32.136,11.2,59.15,31.227,88.771,47.522
	c17.193,9.458,34.754,18.04,54.127,21.845c10.77,2.116,22.246,3.3,32.354-1.824c8.028-4.068,14.852-10.258,22.706-14.664
	c11.95-6.704,25.056-11.099,38.732-12.224c32.446-2.671,63.836,9.629,94.226,19.144c29.799,9.33,60.62,17.132,89.091,0.068
	c22.736-13.626,38.511-34.344,43.908-60.425c5.15-24.891,1.882-51.026-2.728-75.737c-9.178-49.201-28.157-98.979-12.712-148.878
	c5.736-18.53,16.537-35.415,36.874-38.984c21.902-3.844,47.22,4.183,67.256,12.254c9.641,3.884,18.758,8.724,27.312,14.624
	c2.277,1.57,4.475,3.295,6.853,4.712c1.49,0.888,2.201,0.996,2.264,1.054c4.344-1.414,10.108-9.311,13.594-13.174
	c10.126-11.223,20.541-22.155,30.729-33.316c19.698-21.582,38.344-46.278,63.658-61.676c10.565-6.427,22.622-10.85,35.124-10.556
	c14.426,0.34,26.777,6.808,38.526,14.661c19.275,12.883,30.983,29.472,43.421,48.434c3.299,5.03,6.864,9.788,13.19,10.667
	c10.699,1.486,23.172-4.694,32.602-8.806c26.016-11.342,49.947-28.563,77.181-37.05c17.41-5.424,33.434-2.886,47.822,8.443
	c22.103,17.406,37.068,43.541,53.032,66.191c12.422,17.622,26.404,36.513,46.674,45.546c21.441,9.555,46.903,6.322,69.319,2.772
	c31.512-4.99,62.712-10.511,94.568-13.101c57.857-4.704,117.844-2.154,172.171,20.099c58.103,23.8,99.89,69.392,129.889,123.481
	c19.812,35.723,29.793,76.013,25.458,116.42c2.976-7.646,5.428-15.49,7.208-23.546l0.095-0.441l0.036-0.163l0.252-1.185l0.034-0.158
	l0.111-0.55l0.158-0.793l0.086-0.433c0.289-1.496,0.553-2.994,0.795-4.494l0.024-0.149l0.031-0.205
	c0.096-0.602,0.188-1.205,0.276-1.808l0.008-0.051l0.043-0.303l0.037-0.263c0.072-0.514,0.143-1.027,0.21-1.54l0.037-0.276
	l0.021-0.156l0.036-0.302l0.178-1.47l0.03-0.243l0.027-0.23l0.025-0.237c0.057-0.508,0.11-1.017,0.162-1.525l0.03-0.288l0.032-0.333
	l0.006-0.057c0.052-0.538,0.099-1.074,0.146-1.613l0.034-0.376l0.017-0.192c0.06-0.729,0.115-1.457,0.165-2.185l0.002-0.032
	c0.035-0.519,0.068-1.04,0.097-1.56l0.026-0.475l0.054-1.065l0.017-0.31l0.046-1.143l0.034-0.942l0.04-1.36l0.002-0.154
	c0.015-0.63,0.025-1.261,0.032-1.891l0.005-0.381c0.006-0.653,0.008-1.304,0.005-1.956L2134.285,1222.569z"/>
<path style="fill:#46AAE0;" d="M2066.483,1201.088c-31.461-44.38-78.189-81.005-129.139-100.181
	c-24.673-9.286-51.496-14.762-77.908-11.647c-0.842,0.099-1.679,0.21-2.517,0.327c-1.439-1.887-2.97-3.732-4.617-5.531
	c0.005,2.08,0.066,4.158,0.179,6.231c-18.1,3.184-35.204,10.247-51.292,19.133c-36.121,19.953-66.864,47.972-99.522,72.858
	c-13.453,10.25-27.469,20.664-42.987,27.607c-10.865,4.862-23.682,8.31-35.183,3.527c-14.839-6.171-23.29-22.827-28.896-36.885
	c-9.808-24.594-13.486-50.79-19.606-76.397c-9.132-38.204-24.997-78.732-68.566-85.779c-23.968-3.876-50.47-0.342-71.556,11.991
	c-19.594,11.461-33.41,29.663-46.167,47.97c-12.215,17.528-24.132,36.689-42.193,48.84c-12.585,8.467-28.792,10.389-43.263,6.398
	c-29.891-8.244-52.684-35.112-75.538-54.463c-24.459-20.709-53.368-39.678-86.923-33.742c-20.643,3.652-38.684,15.596-54.448,28.882
	c-20.218,17.039-35.486,38.925-43.012,64.365c-14.068,47.544-0.993,97.914,4.267,145.761c0.717,6.522,1.363,13.214,1.83,19.97
	c-3.15,9.458-7.016,18.627-12.1,27.189c-7.608,12.813-18.552,23.987-32.883,28.941c-16.255,5.618-34.332,3.475-50.123-2.661
	c-32.765-12.73-58.227-38.942-91.035-51.653c-27.001-10.461-53.309-7.972-79.417,3.424c-50.84,22.191-90.557,63.233-140.525,86.884
	c-18.374,8.697-40.52,14.877-59.574,4.663c-28.371-15.208-33.665-50.025-49.267-75.139c-3.905-6.286-8.466-11.913-13.56-16.663
	c22.33,34.022-5.659,93.17,21.369,127.782c26.567,34.021,80.405,17.193,118.815-2.501c36.768-18.851,73.537-37.703,110.305-56.556
	c33.272-17.059,76.455-33.274,105.049-9.184c31.061,26.169,17.686,75.195,18.355,115.803
	c1.27,77.125,74.083,145.644,151.143,142.227c67.377-2.988,123.308-51.463,169.673-100.443
	c46.366-48.978,92.493-103.347,156.455-124.736c113.972-38.113,230.425,41.365,348.099,65.762
	c122.404,25.379,256.333-13.804,345.757-101.154c13.179-12.874,25.499-26.994,35.98-42.216
	C2104.825,1277.734,2091.622,1236.554,2066.483,1201.088z"/>
<path style="fill:#2793CF;" d="M2134.285,1222.569c-0.005-0.641-0.011-1.283-0.022-1.924l-0.009-0.421
	c-0.012-0.591-0.027-1.18-0.046-1.771l-0.01-0.331c-0.021-0.636-0.046-1.272-0.075-1.908l-0.026-0.554
	c-0.028-0.595-0.061-1.19-0.095-1.784l-0.04-0.645c-0.034-0.545-0.071-1.089-0.111-1.633l-0.043-0.582
	c-0.039-0.516-0.08-1.032-0.124-1.546l-0.061-0.714c-0.05-0.555-0.102-1.108-0.157-1.663l-0.078-0.768
	c-0.054-0.534-0.111-1.069-0.172-1.603l-0.091-0.781l-0.148-1.227l-0.12-0.953l-0.19-1.419l-0.126-0.904l-0.195-1.329l-0.178-1.156
	l-0.138-0.861c-0.088-0.544-0.178-1.089-0.272-1.632l-0.128-0.744c-0.128-0.733-0.261-1.466-0.399-2.198l-0.046-0.252l-0.091-0.49
	l-0.138-0.698l-0.098-0.493c-0.134-0.676-0.272-1.352-0.414-2.027l-0.098-0.464c-0.381-1.792-0.784-3.581-1.216-5.364
	c-0.4-1.652-0.825-3.3-1.268-4.943l-0.059-0.213c-0.182-0.672-0.367-1.343-0.556-2.013l-0.195-0.689l-0.271-0.942
	c-0.147-0.505-0.296-1.01-0.446-1.514l-0.177-0.583l-0.404-1.321l-0.155-0.505c-0.182-0.582-0.366-1.162-0.553-1.742l-0.136-0.421
	c-0.199-0.616-0.401-1.23-0.606-1.844c-0.369-1.105-0.745-2.209-1.132-3.31c-0.517-1.465-1.048-2.925-1.596-4.38l-0.318-0.832
	c-0.448-1.175-0.904-2.349-1.371-3.516l-0.558-1.372l-0.493-1.2c-0.241-0.582-0.484-1.164-0.729-1.744
	c-0.608-1.433-1.232-2.86-1.869-4.281c-1.274-2.841-2.606-5.658-3.991-8.447c-1.039-2.091-2.11-4.167-3.207-6.227
	c-0.504-0.945-1.016-1.885-1.532-2.823l-0.37-0.667c-0.409-0.739-0.822-1.474-1.238-2.208l-0.24-0.427l-0.151-0.261
	c-1.056-1.847-2.136-3.679-3.236-5.495l-0.419-0.687c-0.436-0.713-0.875-1.424-1.317-2.132l-0.407-0.651
	c-0.567-0.901-1.137-1.799-1.714-2.693c-0.477-0.739-0.958-1.474-1.442-2.207l-0.328-0.494c-0.377-0.569-0.756-1.137-1.137-1.703
	l-0.391-0.579c-0.379-0.561-0.761-1.12-1.143-1.676l-0.343-0.499c-0.448-0.648-0.897-1.295-1.349-1.939l-0.115-0.164l-0.021-0.031
	c-0.744-1.057-1.495-2.107-2.251-3.151l-0.255-0.351c-0.735-1.013-1.476-2.02-2.224-3.02l-0.285-0.382
	c-0.751-1.003-1.509-2.001-2.273-2.993l-0.241-0.312c-0.79-1.024-1.585-2.042-2.388-3.053l-0.029-0.037l-0.135-0.167
	c-0.458-0.577-0.919-1.152-1.382-1.725l-0.213-0.266l-0.201-0.245c-0.759-0.935-1.522-1.867-2.291-2.793l-0.253-0.302
	c-0.805-0.964-1.613-1.924-2.428-2.878l-0.017-0.019c-0.821-0.959-1.647-1.91-2.479-2.858l-0.258-0.295
	c-0.804-0.913-1.613-1.82-2.427-2.721l-0.326-0.361c-0.804-0.888-1.613-1.772-2.427-2.65l-0.37-0.398
	c-0.826-0.888-1.656-1.771-2.492-2.648l-0.2-0.209c-0.86-0.901-1.725-1.797-2.595-2.687l-0.097-0.1
	c-0.864-0.884-1.734-1.76-2.609-2.632l-0.334-0.333c-0.842-0.838-1.688-1.67-2.54-2.498l-0.423-0.411
	c-0.848-0.821-1.701-1.638-2.558-2.451l-0.381-0.359c-0.887-0.837-1.777-1.671-2.674-2.498l-0.144-0.133
	c-0.922-0.85-1.848-1.694-2.78-2.533l-0.141-0.128c-0.912-0.82-1.829-1.634-2.75-2.443l-0.378-0.332
	c-0.892-0.782-1.788-1.56-2.689-2.333l-0.444-0.38c-0.904-0.774-1.813-1.543-2.725-2.307l-0.344-0.286
	c-0.958-0.801-1.92-1.596-2.888-2.386l-0.05-0.041c-0.979-0.799-1.964-1.593-2.954-2.382l-0.222-0.178
	c-0.948-0.756-1.902-1.505-2.858-2.25l-0.438-0.342c-0.93-0.722-1.863-1.44-2.8-2.153l-0.49-0.373
	c-0.95-0.72-1.904-1.436-2.861-2.149l-0.351-0.259c-2.028-1.502-4.072-2.985-6.133-4.447l-0.3-0.214
	c-0.99-0.701-1.983-1.395-2.98-2.086l-0.457-0.317c-0.98-0.677-1.964-1.351-2.951-2.019l-0.459-0.311
	c-1.009-0.682-2.021-1.358-3.037-2.031l-0.272-0.179c-1.036-0.684-2.074-1.364-3.117-2.039l-0.14-0.09
	c-1.039-0.673-2.083-1.339-3.13-2.002l-0.424-0.268c-1.02-0.644-2.043-1.283-3.07-1.918l-0.455-0.281
	c-1.021-0.63-2.046-1.256-3.074-1.878l-0.485-0.293c-1.046-0.63-2.096-1.258-3.148-1.88l-0.27-0.158
	c-1.069-0.631-2.141-1.257-3.216-1.879l-0.17-0.098c-1.076-0.621-2.156-1.237-3.238-1.85l-0.454-0.257
	c-1.021-0.577-2.045-1.148-3.071-1.717l-0.673-0.372c-1.027-0.567-2.057-1.129-3.091-1.688l-0.463-0.25
	c-1.088-0.587-2.179-1.171-3.272-1.75l-0.255-0.133c-1.092-0.577-2.186-1.149-3.284-1.718l-0.247-0.128
	c-1.093-0.565-2.19-1.126-3.29-1.682l-0.534-0.271c-1.05-0.531-2.104-1.058-3.16-1.581l-0.657-0.325
	c-1.069-0.529-2.141-1.053-3.216-1.575l-0.412-0.199c-1.121-0.542-2.244-1.08-3.37-1.614l-0.29-0.136
	c-1.088-0.515-2.178-1.026-3.271-1.532l-0.408-0.191c-1.084-0.502-2.171-1-3.259-1.494l-0.669-0.303
	c-1.072-0.486-2.145-0.968-3.222-1.446l-0.598-0.265c-1.102-0.487-2.205-0.972-3.311-1.453l-0.452-0.195
	c-2.354-1.02-4.718-2.024-7.091-3.011l-0.389-0.163c-1.117-0.463-2.236-0.923-3.357-1.379l-0.665-0.269
	c-1.098-0.446-2.198-0.889-3.3-1.328l-0.603-0.239c-1.126-0.447-2.253-0.891-3.382-1.33l-0.478-0.185
	c-1.128-0.438-2.255-0.873-3.386-1.304l-0.225-0.085c-1.151-0.438-2.305-0.872-3.459-1.303l-0.62-0.231
	c-1.125-0.418-2.251-0.832-3.378-1.244l-0.602-0.219c-1.132-0.411-2.265-0.82-3.399-1.224l-0.584-0.207
	c-1.164-0.414-2.329-0.825-3.495-1.232l-0.344-0.119c-1.164-0.406-2.33-0.807-3.497-1.205l-0.269-0.093
	c-1.191-0.406-2.384-0.808-3.578-1.205l-0.522-0.174c-1.159-0.386-2.319-0.768-3.479-1.147l-0.595-0.194
	c-1.148-0.374-2.297-0.744-3.448-1.111l-0.594-0.189c-1.173-0.373-2.348-0.744-3.523-1.111l-0.346-0.107
	c-1.137-0.354-2.276-0.705-3.415-1.053l-0.46-0.141c-1.168-0.355-2.337-0.707-3.506-1.056l-0.643-0.191
	c-1.154-0.343-2.31-0.683-3.466-1.02l-0.579-0.169c-1.166-0.338-2.334-0.674-3.502-1.007l-0.563-0.16
	c-1.217-0.346-2.436-0.689-3.656-1.028c-2.74-0.762-5.486-1.507-8.233-2.236c-1.832-0.486-3.665-0.964-5.5-1.435
	c-1.833-0.471-3.669-0.935-5.506-1.392c-2.754-0.685-5.51-1.354-8.267-2.006c-2.758-0.653-5.517-1.291-8.275-1.911
	c-2.759-0.622-5.518-1.228-8.277-1.82c-2.759-0.591-5.518-1.166-8.275-1.728c-2.758-0.561-5.514-1.107-8.267-1.639
	c-0.918-0.178-1.836-0.354-2.754-0.527c-3.474-0.659-6.979-1.318-10.505-1.982c-1.512-0.286-3.027-0.572-4.545-0.86
	c-0.506-0.096-1.012-0.192-1.519-0.288c-4.055-0.771-8.131-1.557-12.218-2.366c-1.022-0.203-2.044-0.407-3.067-0.612
	c-0.662-0.133-1.324-0.267-1.985-0.402c-51.244-0.016-108.558-0.352-149.985-33.128c-22.768-18.014-38.892-44.893-46.685-72.708
	c-4.839-17.274-4.895-36.065-5.822-53.855c-1.149-22.082-2.07-44.257-5.431-66.141c-2.736-17.821-6.704-37.026-17.309-52.034
	c-9.857-13.95-24.949-21.217-42.063-19.681c-24.132,2.166-43.435,14.654-56.81,34.483c-15.243,22.594-23.567,49.642-41.342,70.572
	c-14.717,17.328-42.689,30.735-63.111,14.623c-16.582-13.082-24.872-34.924-38.65-50.651
	c-14.397-16.431-35.274-26.955-57.247-27.905c-37.156-1.606-54.057,35.227-65.755,64.506
	c-14.168,35.461-26.236,79.214-59.725,101.713c-20.805,13.978-46.35,15.537-70.465,11.21c-22.339-4.008-43.969-14.858-66.86-15.32
	c-25.204-0.509-42.878,17.598-55.752,37.366c-18.59,28.546-31.41,61.126-22.738,95.339c7.787,30.722,28.769,56.376,45.11,82.861
	c14.597,23.659,26.606,48.638,32.996,75.814c5.491,23.351,7.262,49.51-1.849,72.226c-9.742,24.288-31.208,38.796-56.06,44.812
	c-35.005,8.473-64.439-8.644-95.311-22.875c-22.588-10.412-51.925-22.766-73.676-4.191c-15.53,13.261-27.744,54.189-54.191,45.491
	c-15.407-5.067-27.878-15.771-41.362-24.349c-14.054-8.94-28.761-17.106-43.513-24.831c-30.401-15.918-62.747-29.087-96.983-33.569
	c-44.368-5.808-92.162,11.942-132.247,29.764c28.276-2.542,56.846-2.125,84.744,0.673c28.829,2.891,57.554,8.554,84.946,18.1
	c32.136,11.2,59.15,31.227,88.771,47.522c17.193,9.458,34.754,18.04,54.127,21.845c10.77,2.116,22.246,3.3,32.354-1.824
	c8.028-4.068,14.852-10.258,22.706-14.664c11.95-6.704,25.056-11.099,38.732-12.224c32.446-2.671,63.836,9.629,94.226,19.144
	c29.799,9.33,60.62,17.132,89.091,0.068c22.736-13.626,38.511-34.344,43.908-60.425c5.15-24.891,1.882-51.026-2.728-75.737
	c-9.178-49.201-28.157-98.979-12.712-148.878c5.736-18.53,16.537-35.415,36.874-38.984c21.902-3.844,47.22,4.183,67.256,12.254
	c9.641,3.884,18.758,8.724,27.312,14.624c2.277,1.57,4.475,3.295,6.853,4.712c1.49,0.888,2.201,0.996,2.264,1.054
	c4.344-1.414,10.108-9.311,13.594-13.174c10.126-11.223,20.541-22.155,30.729-33.316c19.698-21.582,38.344-46.278,63.658-61.676
	c10.565-6.427,22.622-10.85,35.124-10.556c14.426,0.34,26.777,6.808,38.526,14.661c19.275,12.883,30.983,29.472,43.421,48.434
	c3.299,5.03,6.864,9.788,13.19,10.667c10.699,1.486,23.172-4.694,32.602-8.806c26.016-11.342,49.947-28.563,77.181-37.05
	c17.41-5.424,33.434-2.886,47.822,8.443c22.103,17.406,37.068,43.541,53.032,66.191c12.422,17.622,26.404,36.513,46.674,45.546
	c21.441,9.555,46.903,6.322,69.319,2.772c31.512-4.99,62.712-10.511,94.568-13.101c57.857-4.704,117.844-2.154,172.171,20.099
	c58.103,23.8,99.89,69.392,129.889,123.481c19.812,35.723,29.793,76.013,25.458,116.42c2.976-7.646,5.428-15.49,7.208-23.546
	l0.095-0.441l0.036-0.163l0.252-1.185l0.034-0.158l0.111-0.55l0.158-0.793l0.086-0.433c0.289-1.496,0.553-2.994,0.795-4.494
	l0.024-0.149l0.031-0.205c0.096-0.602,0.188-1.205,0.276-1.808l0.008-0.051l0.043-0.303l0.037-0.263
	c0.072-0.514,0.143-1.027,0.21-1.54l0.037-0.276l0.021-0.156l0.036-0.302l0.178-1.47l0.03-0.243l0.027-0.23l0.025-0.237
	c0.057-0.508,0.11-1.017,0.162-1.525l0.03-0.288l0.032-0.333l0.006-0.057c0.052-0.538,0.099-1.074,0.146-1.613l0.034-0.376
	l0.017-0.192c0.06-0.729,0.115-1.457,0.165-2.185l0.002-0.032c0.035-0.519,0.068-1.04,0.097-1.56l0.026-0.475l0.054-1.065
	l0.017-0.31l0.046-1.143l0.034-0.942l0.04-1.36l0.002-0.154c0.015-0.63,0.025-1.261,0.032-1.891l0.005-0.381
	c0.006-0.653,0.008-1.304,0.005-1.956L2134.285,1222.569z"/>
<path style="fill:#ACDDF1;" d="M544.135,1152.291c9.558,0.65,19.071,1.905,28.472,3.93c21.251,4.58,39.656,14.195,58.066,25.456
	c17.481,10.692,36.133,23.173,57.3,23.978c10.777,0.41,20.446-1.823,28.977-8.526c7.32-5.753,13.553-12.84,21.522-17.774
	c21.398-13.247,41.81-1.954,63.919,1.998c15.324,2.739,31.842,3.418,47.403,3.597c14.923,0.173,30.188-0.626,44.597-4.793
	c12.146-3.512,24.187-9.803,30.1-21.528c7.131-14.141,3.62-31.497-1.085-45.817c-9.31-28.341-30.506-49.338-53.211-67.59
	c-18.922-15.211-41.68-29.37-54.202-50.838c-13.948-23.914-6.457-50.463,7.023-72.808c11.168-18.513,26.358-34.281,36.172-53.662
	c9.442-18.646,10.498-38.156,5.007-58.207c-3.121-11.397-7.806-21.265-14.832-30.75c-4.919-6.642-10.786-12.834-14.562-20.246
	c-9.195-18.056,2.022-35.133,13.991-48.764c12.062-13.736,28.944-20.71,45.72-26.825c16.145-5.885,33.57-11.848,43.3-27.072
	c12.856-20.117,9.583-43.855,6.062-66.09c-3.708-23.409-3.41-44.216,6.77-66.04c14.832-31.801,38.335-59.473,75.425-61.646
	c28.967-1.696,56.942,9.489,85.878,8.676c15.835-0.445,30.738-5.055,43.707-14.249c12.637-8.959,22.241-21.45,31.158-33.94
	c26.091-36.547,73.539-130.7,130.206-86.586c30.768,23.953,45.751,64.38,61.309,98.704c1.918,4.23,3.884,8.457,5.927,12.649
	l0.024,0.05c0.668-5.302,1.552-10.543,2.642-15.61c1.964-9.139,4.307-18.384,6.442-27.656c0.119-0.516,0.237-1.031,0.354-1.546
	c0.234-1.031,0.466-2.062,0.693-3.093c0.455-2.063,0.896-4.126,1.314-6.189c0.314-1.547,0.615-3.095,0.901-4.641
	c0.095-0.515,0.19-1.031,0.282-1.547c0.735-4.124,1.359-8.245,1.818-12.354c0.229-2.055,0.418-4.108,0.558-6.157
	c0.069-1.025,0.128-2.048,0.174-3.071c0.114-2.557,0.148-5.108,0.09-7.651c-0.023-1.017-0.061-2.033-0.114-3.048
	c-0.374-7.103-1.512-14.141-3.69-21.077c-0.374-1.191-0.778-2.367-1.21-3.528c-0.649-1.742-1.361-3.45-2.136-5.123
	c-0.258-0.558-0.523-1.112-0.795-1.661c-0.543-1.101-1.113-2.184-1.708-3.254c-0.298-0.534-0.602-1.064-0.912-1.59
	c-9.624-16.312-25.296-28.769-43.283-36.281c-0.58-0.242-1.163-0.48-1.748-0.711c-1.17-0.464-2.349-0.907-3.535-1.33
	c-1.782-0.634-3.581-1.219-5.394-1.757c-1.209-0.359-2.425-0.696-3.646-1.011c-6.107-1.576-12.354-2.61-18.617-3.063
	c-1.253-0.09-2.506-0.158-3.759-0.201c-2.506-0.088-5.01-0.082-7.504,0.021c-19.331,0.796-37.911,6.359-55.189,15.046
	c-1.115,0.561-2.223,1.134-3.328,1.72c-2.759,1.465-5.484,3.009-8.172,4.624c-1.613,0.969-3.212,1.964-4.797,2.983
	c-1.057,0.679-2.107,1.37-3.152,2.07c-0.606,0.407-1.211,0.819-1.814,1.234l-0.852,0.591l-0.932,0.651l-1.017,0.721l-0.715,0.512
	l-1.107,0.799l-0.53,0.39c-0.752,0.552-1.502,1.11-2.247,1.672l-0.547,0.413l-1,0.765l-0.806,0.623l-0.953,0.745l-0.778,0.614
	l-0.987,0.784l-0.823,0.667l-1.367,1.116l-1.123,0.929l-0.727,0.611l-1.005,0.849l-0.755,0.647l-1.024,0.885l-0.665,0.579
	c-0.508,0.446-1.016,0.895-1.52,1.344l-0.218,0.195c-0.536,0.478-1.067,0.959-1.598,1.441l-0.507,0.466l-1.212,1.117l-0.484,0.451
	l-1.285,1.21l-0.392,0.37c-0.554,0.528-1.107,1.057-1.655,1.59c-8.315,8.067-16.221,16.743-24.252,25.246l-1.269,1.341
	c-1.27,1.339-2.544,2.673-3.824,3.999c-3.839,3.976-7.732,7.878-11.734,11.619c-1.779,1.663-3.579,3.295-5.406,4.887
	c-0.609,0.532-1.221,1.058-1.836,1.58c-1.23,1.044-2.473,2.069-3.729,3.075c-1.256,1.005-2.527,1.99-3.813,2.952l-1.383,1.021
	l-0.002,0c-0.807,0.59-1.62,1.17-2.441,1.74c-0.861,0.599-1.728,1.186-2.603,1.762c-0.876,0.577-1.759,1.142-2.65,1.696
	c-1.337,0.831-2.691,1.634-4.065,2.41l-1.381,0.766c-1.387,0.756-2.794,1.483-4.222,2.179l-1.436,0.685
	c-4.088,1.912-8.435,3.411-12.921,4.496c-0.528,0.128-1.058,0.25-1.589,0.366c-2.922,0.64-5.898,1.106-8.892,1.4
	c-1.361,0.133-2.726,0.23-4.093,0.292l-0.82,0.033c-0.819,0.028-1.64,0.044-2.46,0.046l-0.818-0.002
	c-0.82-0.006-1.638-0.025-2.455-0.056c-0.545-0.022-1.089-0.048-1.632-0.081c-1.358-0.082-2.71-0.2-4.055-0.354
	c-0.538-0.061-1.074-0.129-1.609-0.201l-0.801-0.114c-1.067-0.158-2.127-0.339-3.18-0.542c-0.526-0.102-1.051-0.21-1.573-0.322
	c-1.407-0.305-2.798-0.653-4.17-1.042c-2.781-0.789-5.481-1.751-8.067-2.884l-1.398-0.636l-1.098-0.531
	c-11.268-5.6-20.037-14.682-23.401-27.275c-0.174-0.65-0.334-1.309-0.484-1.973c-0.15-0.666-0.29-1.337-0.423-2.013
	c-0.267-1.353-0.505-2.721-0.742-4.092l-0.167-0.967c-0.112-0.645-0.225-1.289-0.342-1.931l-0.178-0.961l-0.091-0.479l-0.191-0.953
	l-0.308-1.416l-0.338-1.396l-0.247-0.919c-0.765-2.737-1.786-5.313-3.313-7.57l-0.807-1.102l-0.587-0.703l-0.962-1.003l-0.698-0.633
	l-1.447-1.108l-1.14-0.709c-0.904-0.513-1.846-0.935-2.82-1.277l-0.842-0.272c-1.273-0.382-2.594-0.633-3.946-0.775l-1.362-0.107
	l-1.379-0.04l-0.463,0.002c-2.01,0.022-4.058,0.239-6.098,0.59c-0.784,0.136-1.566,0.29-2.346,0.461
	c-0.623,0.138-1.243,0.285-1.86,0.441c-1.54,0.392-3.054,0.838-4.521,1.311c-1.108,0.357-2.214,0.727-3.314,1.108
	c-2.75,0.952-5.474,1.973-8.166,3.063c-1.616,0.654-3.221,1.333-4.814,2.035c-1.063,0.469-2.12,0.947-3.173,1.437
	c-0.527,0.245-1.052,0.491-1.575,0.742c-2.618,1.249-5.205,2.564-7.758,3.942c-0.51,0.276-1.019,0.553-1.527,0.834
	c-2.032,1.122-4.04,2.283-6.026,3.482l-1.485,0.908c-4.071,2.513-8.042,5.19-11.907,8.015l-0.02,0.016
	c-39.701,29.039-68.054,73.969-75.732,122.552c-0.362,2.293-0.678,4.595-0.948,6.904c-0.269,2.309-0.492,4.623-0.666,6.944
	c-0.131,1.74-0.234,3.484-0.311,5.23c-0.21,4.816-0.241,9.685-0.226,14.57c0.003,0.814,0.007,1.628,0.011,2.444
	c0.004,0.814,0.01,1.63,0.015,2.444c0.004,0.816,0.009,1.631,0.014,2.446c0.005,0.815,0.009,1.631,0.012,2.445
	c0.004,1.223,0.005,2.444,0.001,3.666c-0.004,1.22-0.012,2.44-0.027,3.659c-0.011,0.812-0.023,1.623-0.041,2.434
	c-0.034,1.621-0.083,3.237-0.151,4.85c-0.034,0.806-0.074,1.611-0.118,2.414c-0.045,0.804-0.095,1.606-0.152,2.406
	c-0.057,0.8-0.119,1.6-0.189,2.396l-0.11,1.194c-0.153,1.59-0.335,3.173-0.549,4.747c-0.094,0.689-0.195,1.375-0.302,2.061
	c-0.268,1.713-0.58,3.414-0.94,5.104l-0.222,1.012c-0.781,3.464-1.777,6.871-3.042,10.206c-0.281,0.741-0.575,1.479-0.883,2.213
	c-0.463,1.101-0.957,2.194-1.484,3.278c-4.883,10.029-12.155,18.403-20.778,25.78c-0.718,0.615-1.447,1.223-2.184,1.824
	c-1.841,1.503-3.738,2.966-5.68,4.393l-0.152,0.11l-0.025,0.018l-0.439,0.318l-1.252,0.905c-0.555,0.397-1.113,0.79-1.675,1.181
	c-0.798,0.556-1.601,1.106-2.41,1.651c-0.81,0.546-1.625,1.086-2.445,1.623c-2.462,1.61-4.968,3.182-7.506,4.726
	c-1.268,0.772-2.545,1.537-3.828,2.296c-0.855,0.506-1.711,1.011-2.571,1.512c-2.576,1.505-5.17,2.989-7.764,4.466l-1.297,0.737
	c-1.73,0.982-3.458,1.961-5.18,2.939l-1.29,0.735c-3.009,1.713-5.996,3.427-8.936,5.161c-1.26,0.742-2.512,1.489-3.752,2.239
	c-0.607,0.367-1.21,0.735-1.811,1.105l-0.336,0.206c-0.556,0.343-1.109,0.686-1.659,1.031l-0.419,0.263
	c-0.565,0.355-1.129,0.712-1.688,1.07l-0.271,0.175c-1.218,0.781-2.42,1.571-3.607,2.368l-0.16,0.108
	c-0.589,0.397-1.173,0.796-1.755,1.197l-0.183,0.127c-0.585,0.406-1.166,0.813-1.74,1.223l-0.104,0.074
	c-0.64,0.457-1.276,0.917-1.904,1.38c-0.645,0.476-1.284,0.956-1.916,1.438c-2.166,1.658-4.249,3.36-6.232,5.116
	c-0.66,0.585-1.311,1.177-1.948,1.775l-0.949,0.901l-1.36,1.343l-0.056,0.057l-1.292,1.338l-0.054,0.056
	c-0.873,0.929-1.72,1.874-2.536,2.835c-0.549,0.648-1.084,1.304-1.606,1.966c-1.823,2.324-3.471,4.746-4.916,7.285
	c-1.033,1.814-1.962,3.686-2.779,5.624c-0.327,0.775-0.636,1.56-0.926,2.357c-0.436,1.194-0.829,2.414-1.179,3.659
	c-0.349,1.244-0.656,2.515-0.916,3.811c-0.173,0.865-0.326,1.742-0.458,2.631c-0.198,1.334-0.349,2.695-0.45,4.086
	c-0.15,2.059-0.18,4.08-0.098,6.064c0.066,1.586,0.204,3.151,0.408,4.694c0.153,1.157,0.345,2.303,0.571,3.436
	c0.227,1.133,0.49,2.256,0.788,3.368c0.198,0.741,0.411,1.476,0.639,2.209c0.228,0.731,0.47,1.458,0.726,2.18
	c0.256,0.723,0.527,1.441,0.81,2.155c0.283,0.713,0.58,1.424,0.89,2.13c0.62,1.412,1.292,2.807,2.011,4.188
	c0.539,1.036,1.105,2.064,1.694,3.083c0.32,0.552,0.647,1.103,0.981,1.651c1.336,2.193,2.783,4.352,4.321,6.485
	c1.154,1.599,2.36,3.183,3.609,4.755c0.576,0.725,1.161,1.448,1.757,2.169c1.783,2.161,3.641,4.3,5.556,6.426
	c1.985,2.204,4.03,4.394,6.11,6.577c2.08,2.183,4.196,4.359,6.323,6.536c0.608,0.622,1.216,1.245,1.825,1.868
	c1.472,1.504,2.946,3.011,4.414,4.521c0.525,0.54,1.049,1.081,1.572,1.622c0.944,0.978,1.885,1.957,2.821,2.94
	c0.509,0.534,1.017,1.07,1.522,1.607c0.484,0.513,0.967,1.028,1.446,1.544c1.476,1.588,2.933,3.185,4.361,4.795l0.853,0.967
	c1.452,1.656,2.871,3.326,4.249,5.013c3.918,4.798,7.502,9.735,10.534,14.889c0.467,0.793,0.921,1.59,1.36,2.392l0.65,1.209
	c0.425,0.809,0.837,1.623,1.234,2.443l0.584,1.234c0.381,0.826,0.747,1.657,1.097,2.495c0.35,0.837,0.683,1.682,1,2.531l0.519,1.441
	c1.171,3.377,2.074,6.856,2.659,10.454c0.24,1.477,0.424,2.946,0.553,4.409c0.052,0.584,0.095,1.168,0.129,1.75l0.046,0.873
	c0.035,0.774,0.054,1.547,0.06,2.317v0.839c-0.016,2.296-0.162,4.573-0.424,6.831c-0.116,0.996-0.255,1.99-0.417,2.979l-0.045,0.271
	c-0.312,1.86-0.701,3.708-1.165,5.543c-0.202,0.805-0.421,1.61-0.652,2.41l-0.356,1.199c-0.367,1.199-0.764,2.39-1.188,3.576
	c-0.283,0.791-0.579,1.579-0.886,2.365c-0.205,0.524-0.416,1.046-0.631,1.567l-0.471,1.117c-0.346,0.808-0.705,1.614-1.075,2.416
	l-0.281,0.605c-1.249,2.659-2.625,5.288-4.109,7.887l-0.317,0.551l-0.719,1.23l-0.626,1.046l-0.451,0.738l-0.749,1.209l-0.945,1.487
	l-0.774,1.188l-0.519,0.783c-0.873,1.311-1.77,2.614-2.686,3.91l-0.518,0.727l-0.903,1.251l-0.286,0.391
	c-0.791,1.083-1.596,2.16-2.412,3.231l-0.259,0.339l-0.844,1.098c-0.631,0.814-1.267,1.625-1.909,2.433
	c-0.794,0.999-1.597,1.995-2.407,2.985l-0.629,0.766c-0.438,0.532-0.877,1.061-1.319,1.59l-0.19,0.227
	c-5.767,6.894-11.81,13.54-17.637,19.945c-20.115,22.11-39.916,51.056-38.774,79.094l0.039,0.817
	c0.06,1.088,0.152,2.175,0.278,3.259l0.1,0.813c0.106,0.813,0.231,1.624,0.376,2.434l0.151,0.811c0.21,1.079,0.455,2.156,0.735,3.23
	c0.139,0.537,0.289,1.073,0.447,1.608c0.237,0.803,0.494,1.604,0.773,2.404c0.186,0.533,0.382,1.065,0.586,1.595
	c0.409,1.063,0.857,2.121,1.343,3.174l0.409,0.87c0.277,0.576,0.56,1.144,0.851,1.703c0.581,1.119,1.189,2.206,1.823,3.262
	c0.317,0.527,0.641,1.047,0.971,1.56c1.155,1.794,2.387,3.495,3.69,5.111c0.558,0.692,1.129,1.37,1.713,2.033l0.588,0.658
	c2.96,3.263,6.224,6.159,9.723,8.771l1.412,1.029c5.223,3.72,10.932,6.851,16.906,9.643l0.815,0.379
	c1.363,0.627,2.74,1.239,4.127,1.836c1.11,0.478,2.226,0.948,3.348,1.409c0.561,0.231,1.123,0.46,1.687,0.687l0.846,0.34
	c2.259,0.904,4.535,1.782,6.82,2.648c1.997,0.759,4.002,1.507,6.005,2.255c0.573,0.213,1.144,0.427,1.716,0.641
	c1.143,0.426,2.286,0.854,3.426,1.283c0.57,0.214,1.14,0.43,1.707,0.645l0.852,0.324c0.568,0.216,1.135,0.433,1.701,0.651
	c1.132,0.437,2.259,0.877,3.381,1.323l1.364,0.546c0.851,0.343,1.7,0.689,2.542,1.039c0.738,0.307,1.474,0.616,2.205,0.93
	c5.122,2.193,10.07,4.563,14.715,7.266c7.082,4.122,12.596,8.539,16.714,13.112l0.805,0.917l0.845,1.017l0.406,0.509
	c0.45,0.573,0.878,1.148,1.286,1.725c0.816,1.153,1.549,2.315,2.202,3.481c0.327,0.582,0.633,1.167,0.92,1.753
	c0.718,1.463,1.313,2.932,1.789,4.404c0.18,0.554,0.344,1.108,0.489,1.663l0.208,0.832c0.13,0.554,0.244,1.108,0.342,1.663
	c0.097,0.554,0.18,1.108,0.246,1.661c0.066,0.554,0.117,1.107,0.151,1.66c0.035,0.552,0.054,1.104,0.059,1.655
	c0.004,0.551-0.007,1.101-0.033,1.649l-0.049,0.823c-0.041,0.548-0.096,1.094-0.167,1.639c-0.105,0.819-0.243,1.633-0.412,2.443
	c-0.226,1.08-0.508,2.154-0.844,3.218l-0.263,0.798c-0.181,0.53-0.376,1.058-0.585,1.583c-0.208,0.525-0.43,1.048-0.664,1.568
	c-0.234,0.52-0.481,1.038-0.741,1.552l-0.399,0.77c-0.272,0.511-0.557,1.019-0.853,1.524c-0.446,0.757-0.918,1.508-1.418,2.25
	l-1.034,1.473c-1.068,1.463-2.24,2.889-3.508,4.277l-1.3,1.373c-0.665,0.681-1.355,1.349-2.067,2.008l-1.453,1.301
	c-1.331,1.153-2.735,2.269-4.203,3.343l-1.333,0.953c-0.558,0.389-1.126,0.773-1.703,1.15c-9.798,6.408-22.053,11.02-35.428,12.768
	c-0.575,0.075-1.15,0.147-1.726,0.214c-1.726,0.203-3.454,0.371-5.184,0.508c-0.769,0.06-1.537,0.114-2.307,0.163
	c-2.308,0.144-4.62,0.234-6.933,0.272c-1.543,0.026-3.087,0.029-4.632,0.011c-23.175-0.271-46.596-5.293-69.934-10.338
	c-2.333-0.505-4.667-1.009-6.998-1.509c-5.441-1.167-10.875-2.309-16.299-3.367c-0.775-0.151-1.549-0.301-2.323-0.448
	c-1.548-0.294-3.097-0.583-4.644-0.861c-9.281-1.669-18.525-3.015-27.711-3.733c-1.346-0.105-2.693-0.204-4.04-0.298l-1.28-0.088
	c-0.921-0.063-1.845-0.123-2.767-0.181c-0.513-0.031-1.025-0.065-1.537-0.095c-0.84-0.05-1.679-0.096-2.52-0.143
	c-1.256-0.068-2.512-0.133-3.768-0.194l-0.747-0.035c-1.07-0.049-2.14-0.094-3.211-0.138c-0.685-0.027-1.371-0.054-2.056-0.078
	l-0.664-0.024c-0.986-0.034-1.97-0.065-2.956-0.094c-0.736-0.022-1.473-0.042-2.208-0.06l-0.023-0.001
	C595.714,1147.835,569.805,1149.103,544.135,1152.291z"/>
<path style="fill:#2793CF;" d="M1104.005,1179.692c-0.244,85.882,51.108,169.173,127.654,207.053
	c-38.924-40.668-63.608-81.404-85.895-133.213C1134.182,1226.609,1123.646,1201.372,1104.005,1179.692z"/>
<path style="fill:#2793CF;" d="M1251.646,956.707c-1.896,61.435,33.171,122.05,87.173,150.683
	c-27.031-29.874-43.874-59.51-58.78-97.021C1272.294,990.877,1265.262,972.611,1251.646,956.707z"/>
<path style="fill:#2793CF;" d="M1452.591,1105.187c1.125,71.961,45.438,140.952,110.159,171.505
	c-33.242-33.471-54.554-67.22-74.029-110.283C1478.601,1144.031,1469.383,1123.049,1452.591,1105.187z"/>
<path style="fill:#2793CF;" d="M1838.396,1383.31c-38.274-39.587-62.621-79.311-84.678-129.877
	c-11.461-26.277-21.892-50.911-41.211-72.02C1712.693,1265.419,1763.335,1346.637,1838.396,1383.31z"/>
<path style="fill:#2793CF;" d="M1924.118,1199.234c-21.835-22.583-35.724-45.245-48.306-74.092
	c-5.561-12.75-10.699-24.821-18.893-35.555c-1.439-1.887-2.97-3.732-4.617-5.531c0.005,2.08,0.066,4.158,0.179,6.231
	C1854.946,1135.954,1883.156,1179.221,1924.118,1199.234z"/>
<path style="fill:#2793CF;" d="M1337.012,1258.395c0.059,26.878,16.262,52.863,40.277,64.596
	c-12.245-12.665-20.035-25.375-27.091-41.553C1346.53,1273.03,1343.193,1265.149,1337.012,1258.395z"/>
<path style="fill:#2793CF;" d="M1627.279,1334.249c0.059,26.878,16.262,52.863,40.277,64.596
	c-12.245-12.666-20.035-25.375-27.091-41.554C1636.797,1348.884,1633.46,1341.003,1627.279,1334.249z"/>
<path style="fill:#2793CF;" d="M1038.074,1484.218c-10.045-12.906-19.289-25.048-32.948-33.988
	c11.965,46.406,51.424,84.146,98.091,93.817C1076.472,1527.571,1057.406,1509.053,1038.074,1484.218z"/>
<path style="fill:#93D5F7;" d="M1359.488,862.855c-1.068,0.214-1.305,1.612-0.438,2.221l0.512,0.294l0.828-0.166l0.359-0.469
	C1361.313,863.84,1360.556,862.641,1359.488,862.855z"/>
<path style="fill:#93D5F7;" d="M1317.8,832.416c-0.884,0.177-1.078,1.333-0.363,1.836l0.423,0.243l0.684-0.137l0.296-0.387
	C1319.307,833.23,1318.682,832.239,1317.8,832.416z"/>
<polygon style="fill:#93D5F7;" points="1412.532,895.807 1413.023,896.021 1413.117,895.918 1413.121,895.719 1413.031,895.612 "/>
<path style="fill:#93D5F7;" d="M1342.598,788c-1.952,0.242-2.565,2.728-1.088,3.94l0.881,0.597l1.513-0.188l0.709-0.794
	C1345.75,790.019,1344.549,787.758,1342.598,788z"/>
<polygon style="fill:#93D5F7;" points="1228.09,856.606 1228.298,856.726 1228.636,856.658 1228.783,856.467 1228.268,855.701 "/>
<path style="fill:#93D5F7;" d="M1448.443,911.706c-0.517-0.081-0.914,0.497-0.607,0.94c0.306,0.443,0.987,0.277,1.094-0.235
	l0.033-0.289l-0.238-0.344L1448.443,911.706z"/>
<path style="fill:#93D5F7;" d="M1524.469,882.347c-0.517-0.081-0.914,0.497-0.609,0.94c0.307,0.443,0.987,0.277,1.095-0.235
	l0.033-0.289l-0.238-0.344L1524.469,882.347z"/>
<path style="fill:#93D5F7;" d="M1630.526,949.384c-0.639-0.422-1.783-0.375-2.389,0.096l-1.21,1.15
	c-1.976,2.254-0.393,5.943,2.689,5.818c3.081-0.125,4.362-3.93,2.21-6.016L1630.526,949.384z"/>
<path style="fill:#93D5F7;" d="M1533.896,766.692c-0.639-0.422-1.783-0.375-2.388,0.097l-1.21,1.15
	c-1.976,2.254-0.393,5.943,2.688,5.818c3.081-0.125,4.362-3.93,2.21-6.016L1533.896,766.692z"/>
<path style="fill:#93D5F7;" d="M1389.456,804.044c-0.568,0.611-0.09,1.586,0.721,1.577l0.449-0.046l0.441-0.473l0.014-0.452
	C1391.032,803.84,1390.025,803.433,1389.456,804.044z"/>
<path style="fill:#93D5F7;" d="M996.038,880.193l1.412-0.144c0.638-0.128,1.3-0.841,1.384-1.487l0.044-1.419
	c-0.156-2.542-3.318-3.823-5.104-1.905C991.988,877.156,993.491,880.221,996.038,880.193z"/>
<path style="fill:#93D5F7;" d="M1438.458,870.54c-1.732-0.273-3.062,1.665-2.037,3.15c1.026,1.485,3.309,0.929,3.669-0.789
	l0.111-0.971l-0.795-1.152L1438.458,870.54z"/>
<path style="fill:#93D5F7;" d="M1493.137,863.18c-1.733-0.273-3.063,1.665-2.036,3.15c1.025,1.486,3.309,0.929,3.667-0.789
	l0.112-0.971l-0.795-1.151L1493.137,863.18z"/>
<path style="fill:#93D5F7;" d="M1245.582,782.255l-0.39-0.149l-0.274,0.101c-0.473,0.224-0.474,0.925,0.029,1.118
	c0.503,0.193,0.971-0.328,0.77-0.812L1245.582,782.255z"/>
<path style="fill:#93D5F7;" d="M1380.703,869.047c-3.057-3.934-9.576-2.511-10.342,2.557c-0.766,5.069,5.042,8.357,9.124,5.502
	c0.774-0.543,1.44-1.101,2.12-1.792c0.889-0.91,1.174-2.791,0.594-3.929C1381.753,870.525,1381.283,869.794,1380.703,869.047z"/>
<path style="fill:#93D5F7;" d="M1191.242,907.146c-3.057-3.934-9.576-2.511-10.343,2.557c-0.766,5.069,5.042,8.357,9.125,5.502
	c0.774-0.543,1.44-1.101,2.12-1.792c0.889-0.91,1.173-2.792,0.594-3.929C1192.292,908.622,1191.822,907.892,1191.242,907.146z"/>
<path style="fill:#93D5F7;" d="M1500.912,843.437c-1.971-2.537-6.175-1.619-6.669,1.649c-0.494,3.268,3.251,5.389,5.884,3.547
	l1.367-1.156c0.573-0.587,0.758-1.8,0.384-2.534C1501.589,844.389,1501.286,843.918,1500.912,843.437z"/>
<polygon style="fill:#93D5F7;" points="1464.701,701.287 1465.192,701.501 1465.286,701.398 1465.29,701.198 1465.2,701.091 "/>
<path style="fill:#93D5F7;" d="M1492.258,678.381l0.112-0.971l-0.795-1.152l-0.948-0.239c-1.733-0.272-3.063,1.665-2.037,3.151
	C1489.615,680.655,1491.9,680.099,1492.258,678.381z"/>
<path style="fill:#93D5F7;" d="M1500.946,712.12c-1.971-2.537-6.174-1.62-6.669,1.649c-0.487,3.228,3.158,5.333,5.784,3.612
	l-0.057,0.745c0.306,0.443,0.987,0.277,1.094-0.235l0.034-0.29l-0.237-0.343l-0.283-0.071l-0.356,0.05l1.271-1.075
	c0.573-0.587,0.757-1.8,0.384-2.533C1501.623,713.071,1501.32,712.601,1500.946,712.12z"/>
<path style="fill:#93D5F7;" d="M1390.248,799.691l-0.765-1.196c-1.563-2.011-4.896-1.284-5.288,1.308
	c-0.391,2.591,2.578,4.273,4.665,2.813l1.083-0.916C1390.399,801.234,1390.545,800.272,1390.248,799.691z"/>
<path style="fill:#93D5F7;" d="M1765.06,1001.341c-0.432,0.862,0.415,1.789,1.311,1.516l0.484-0.197l0.335-0.668l-0.132-0.505
	C1766.741,1000.604,1765.492,1000.478,1765.06,1001.341z"/>
<path style="fill:#93D5F7;" d="M1721.106,1013.867c-0.357,0.712,0.343,1.479,1.084,1.252l0.4-0.162l0.277-0.552l-0.109-0.418
	C1722.496,1013.258,1721.464,1013.155,1721.106,1013.867z"/>
<polygon style="fill:#93D5F7;" points="1817.21,981.796 1817.087,981.8 1816.952,982.254 1817.369,982.028 1817.348,981.907 "/>
<path style="fill:#93D5F7;" d="M1703.603,972.366c-0.894,1.495,0.507,3.276,2.159,2.906l0.897-0.29l0.692-1.158l-0.168-0.928
	C1706.729,971.265,1704.497,970.872,1703.603,972.366z"/>
<polygon style="fill:#93D5F7;" points="1847.812,965.685 1847.608,965.843 1847.933,966.779 1848.365,965.887 1848.181,965.706 "/>
<path style="fill:#93D5F7;" d="M1741.63,947.588c-0.591-0.407-1.425,0.074-1.308,0.803c0.117,0.73,1.058,0.928,1.494,0.356
	l0.213-0.338l-0.091-0.566L1741.63,947.588z"/>
<path style="fill:#93D5F7;" d="M1815.351,949.936l-1.237-0.073l-0.683,0.531c-1.135,1.062-0.506,3.046,1.09,3.139
	c1.595,0.093,2.45-1.804,1.447-2.991L1815.351,949.936z"/>
<path style="fill:#93D5F7;" d="M1783.383,990.131c-0.843-0.158-1.61-0.227-2.447-0.229c-4.411-0.009-6.969,5.318-3.847,8.613
	c3.121,3.295,8.58,1.031,8.81-3.374c0.043-0.836,0.016-1.605-0.097-2.455C1785.652,991.569,1784.493,990.346,1783.383,990.131z"/>
<path style="fill:#93D5F7;" d="M1737.715,945.467l-1.25-0.117c-2.255-0.004-3.563,2.719-1.967,4.404
	c1.596,1.685,4.387,0.527,4.505-1.725l-0.05-1.256C1738.875,946.203,1738.282,945.578,1737.715,945.467z"/>
<path style="fill:#93D5F7;" d="M1211.099,838.333c-1.562-2.012-4.896-1.284-5.288,1.307s2.578,4.273,4.665,2.813l1.084-0.916
	c0.455-0.466,0.6-1.428,0.303-2.009L1211.099,838.333z"/>
<path style="fill:#93D5F7;" d="M1226.769,719.429c-0.409-0.624-1.451-1.024-2.175-0.835c-0.549,0.147-1.026,0.324-1.527,0.562
	c-2.638,1.254-2.645,5.166,0.16,6.244c2.806,1.078,5.421-1.832,4.301-4.53C1227.314,720.357,1227.079,719.906,1226.769,719.429z"/>
<path style="fill:#93D5F7;" d="M1273.757,810.265c-0.409-0.624-1.451-1.024-2.175-0.835c-0.549,0.146-1.026,0.324-1.527,0.562
	c-2.638,1.253-2.646,5.166,0.16,6.243c2.806,1.078,5.421-1.832,4.301-4.53C1274.303,811.193,1274.067,810.741,1273.757,810.265z"/>
<path style="fill:#93D5F7;" d="M985.159,955.109c-0.196,0.826,0.717,1.448,1.43,1.033l0.375-0.267l0.151-0.64l-0.215-0.405
	C986.45,954.138,985.355,954.284,985.159,955.109z"/>
<path style="fill:#93D5F7;" d="M950.055,974.724c-0.162,0.683,0.593,1.196,1.182,0.853l0.31-0.221l0.125-0.529l-0.177-0.336
	C951.122,973.921,950.217,974.041,950.055,974.724z"/>
<path style="fill:#93D5F7;" d="M974.327,1096.22c-0.162,0.682,0.592,1.197,1.181,0.853l0.31-0.22l0.125-0.529l-0.178-0.335
	C975.394,1095.418,974.489,1095.537,974.327,1096.22z"/>
<polygon style="fill:#93D5F7;" points="1025.864,927.828 1025.759,927.857 1025.735,928.273 1026.046,927.996 1026.004,927.896 "/>
<path style="fill:#93D5F7;" d="M926.675,942.725c-0.464,1.461,1.097,2.704,2.436,2.052l0.71-0.429l0.359-1.132l-0.332-0.76
	C929.13,941.15,927.138,941.265,926.675,942.725z"/>
<path style="fill:#93D5F7;" d="M954.228,913.818c-0.589-0.229-1.205,0.352-0.958,0.952c0.248,0.601,1.094,0.58,1.352,0.003
	l0.113-0.333l-0.192-0.466L954.228,913.818z"/>
<path style="fill:#93D5F7;" d="M1001.172,943.504c-0.355-0.925-1.595-1.739-2.589-1.698c-0.754,0.035-1.425,0.13-2.141,0.298
	c-3.779,0.885-4.892,5.963-1.553,8.154c3.34,2.19,7.556-0.852,6.862-4.671C1001.619,944.862,1001.439,944.21,1001.172,943.504z"/>
<path style="fill:#93D5F7;" d="M935.178,1266.64c-0.355-0.925-1.595-1.738-2.589-1.698c-0.754,0.035-1.424,0.131-2.141,0.299
	c-3.779,0.884-4.891,5.962-1.552,8.153c3.339,2.19,7.556-0.852,6.862-4.67C935.626,1268,935.447,1267.347,935.178,1266.64z"/>
<path style="fill:#93D5F7;" d="M951.77,913.663c-0.182-0.473-0.815-0.889-1.324-0.868l-1.095,0.153
	c-1.932,0.452-2.501,3.049-0.794,4.169c1.707,1.12,3.863-0.436,3.508-2.388L951.77,913.663z"/>
<path style="fill:#93D5F7;" d="M921.317,998.63l-1.266,0.069c-0.574,0.086-1.196,0.693-1.299,1.268l-0.099,1.263
	c0.03,2.275,2.797,3.553,4.473,1.917C924.802,1001.513,923.592,998.715,921.317,998.63z"/>
<path style="fill:#93D5F7;" d="M851.595,1265.918c-1.639,0.257-2.089,2.37-0.81,3.352l0.76,0.48l1.27-0.199l0.576-0.69
	C854.308,1267.535,853.234,1265.661,851.595,1265.918z"/>
<path style="fill:#93D5F7;" d="M785.044,1260.026c-0.42,0.335-0.209,1.001,0.308,1.073l0.291,0.013l0.326-0.259l0.052-0.286
	C786.066,1260.047,785.465,1259.691,785.044,1260.026z"/>
<polygon style="fill:#93D5F7;" points="760.152,1256.953 760.392,1256.964 760.661,1256.75 760.704,1256.514 759.897,1256.066 "/>
<polygon style="fill:#93D5F7;" points="815.913,1262.332 815.738,1262.53 816.002,1262.513 816.02,1262.447 815.977,1262.358 "/>
<path style="fill:#93D5F7;" d="M843.784,1248.27c-0.802,0.546-0.51,1.774,0.412,1.974l0.52,0.064l0.622-0.423l0.132-0.508
	C845.622,1248.446,844.586,1247.724,843.784,1248.27z"/>
<polygon style="fill:#93D5F7;" points="785.798,1227.882 785.885,1227.576 785.789,1227.374 784.939,1227.474 785.611,1228.004 "/>
<path style="fill:#93D5F7;" d="M796.929,1258.651l-1.183-0.688c-2.227-1.037-4.767,1.056-3.961,3.452
	c0.807,2.396,4.095,2.53,5.243,0.357l0.526-1.263C797.739,1259.909,797.439,1259.019,796.929,1258.651z"/>
<path style="fill:#93D5F7;" d="M912.886,1285.113l-1.183-0.689c-2.227-1.037-4.767,1.056-3.961,3.452
	c0.807,2.396,4.095,2.531,5.243,0.358l0.526-1.263C913.696,1286.371,913.397,1285.481,912.886,1285.113z"/>
<path style="fill:#93D5F7;" d="M783.701,1225.034c-1.138-0.53-2.437,0.54-2.025,1.765c0.412,1.225,2.093,1.294,2.68,0.182
	l0.269-0.646l-0.32-0.95L783.701,1225.034z"/>
<path style="fill:#93D5F7;" d="M736.243,1256.733l-0.657-0.461l-1.142,0.123l-0.544,0.591c-0.875,1.145,0.004,2.863,1.477,2.703
	C736.85,1259.53,737.342,1257.664,736.243,1256.733z"/>
<path style="fill:#93D5F7;" d="M968.347,1049.452l-1.266,0.069c-0.575,0.086-1.196,0.694-1.299,1.268l-0.099,1.263
	c0.03,2.276,2.797,3.553,4.472,1.918C971.831,1052.334,970.621,1049.537,968.347,1049.452z"/>
<path style="fill:#E1F2FC;" d="M969.4,447.161c15.788-9.195,35.068-12.212,52.911-8.283c6.114,1.347,12.933,3.372,18.273,0.103
	c5.949-3.643,6.695-12.628,3.077-18.594c-3.617-5.966-10.295-9.374-16.937-11.51c-23.938-7.7-46.405-0.761-65.158,15.994
	c-16.405,14.658-24.463,40.996-31.293,69.617C943.53,473.777,951.383,457.653,969.4,447.161z"/>
<path style="fill:#E1F2FC;" d="M864.772,667.993c6.24-0.508,13.354-0.574,17.497-5.267c4.617-5.231,2.692-14.037-2.517-18.678
	c-5.21-4.641-12.594-5.938-19.57-6.03c-25.145-0.333-44.585,12.896-57.592,34.418c-11.379,18.828-11.349,46.372-9.474,75.737
	c6.593-23.69,9.365-41.409,23.508-56.728C829.018,678.02,846.562,669.475,864.772,667.993z"/>
<path style="fill:#FFFFFF;" d="M2049.121,1269.234c-14.19,60.71-80.714,107.992-147.251,132.835
	c-64.608,24.123-127.457,30.001-197.171,31.23c-0.854,0.015-1.18,1.156-0.356,1.26c66.402,8.338,137.423,2.914,206.289-15.807
	c39.103-10.63,78.998-26.398,108.551-53.706c28.966-26.766,45.267-66.749,31.289-96.125
	C2050.221,1268.39,2049.265,1268.617,2049.121,1269.234z"/>
</svg>
